solid OpenSCAD_Model
  facet normal -1 0 0
    outer loop
      vertex -2.5 0 0
      vertex -2.5 2.5 15
      vertex -2.5 2.5 0
    endloop
  endfacet
  facet normal -1 0 0
    outer loop
      vertex -2.5 -2.5 15
      vertex -2.5 0 0
      vertex -2.5 -2.5 0
    endloop
  endfacet
  facet normal -1 0 0
    outer loop
      vertex -2.5 0 0
      vertex -2.5 -2.5 15
      vertex -2.5 2.5 15
    endloop
  endfacet
  facet normal -0 0 1
    outer loop
      vertex -2.5 2.5 15
      vertex 2.5 -2.5 15
      vertex 2.5 2.5 15
    endloop
  endfacet
  facet normal 0 0 1
    outer loop
      vertex 2.5 -2.5 15
      vertex -2.5 2.5 15
      vertex -2.5 -2.5 15
    endloop
  endfacet
  facet normal 1 0 0
    outer loop
      vertex 2.5 2.5 15
      vertex 2.5 0 0
      vertex 2.5 2.5 0
    endloop
  endfacet
  facet normal 1 -0 0
    outer loop
      vertex 2.5 -2.5 15
      vertex 2.5 0 0
      vertex 2.5 2.5 15
    endloop
  endfacet
  facet normal 1 0 0
    outer loop
      vertex 2.5 0 0
      vertex 2.5 -2.5 15
      vertex 2.5 -2.5 0
    endloop
  endfacet
  facet normal 0 1 0
    outer loop
      vertex 0 2.5 0
      vertex 2.5 2.5 15
      vertex 2.5 2.5 0
    endloop
  endfacet
  facet normal 0 1 0
    outer loop
      vertex 2.5 2.5 15
      vertex 0 2.5 0
      vertex -2.5 2.5 15
    endloop
  endfacet
  facet normal 0 1 0
    outer loop
      vertex -2.5 2.5 15
      vertex 0 2.5 0
      vertex -2.5 2.5 0
    endloop
  endfacet
  facet normal 0 0 -1
    outer loop
      vertex 2.37764 0.772542 0
      vertex 2.5 2.5 0
      vertex 2.5 0 0
    endloop
  endfacet
  facet normal 0 0 -1
    outer loop
      vertex 2.02254 1.46946 0
      vertex 2.5 2.5 0
      vertex 2.37764 0.772542 0
    endloop
  endfacet
  facet normal 0 0 -1
    outer loop
      vertex 1.46946 2.02254 0
      vertex 2.5 2.5 0
      vertex 2.02254 1.46946 0
    endloop
  endfacet
  facet normal 0 0 -1
    outer loop
      vertex 0.772542 2.37764 0
      vertex 2.5 2.5 0
      vertex 1.46946 2.02254 0
    endloop
  endfacet
  facet normal -0 0 -1
    outer loop
      vertex 2.5 2.5 0
      vertex 0.772542 2.37764 0
      vertex 0 2.5 0
    endloop
  endfacet
  facet normal 0 0 -1
    outer loop
      vertex 2.5 -2.5 0
      vertex 2.37764 -0.772542 0
      vertex 2.5 0 0
    endloop
  endfacet
  facet normal 0 0 -1
    outer loop
      vertex 2.5 -2.5 0
      vertex 2.02254 -1.46946 0
      vertex 2.37764 -0.772542 0
    endloop
  endfacet
  facet normal 0 0 -1
    outer loop
      vertex 2.5 -2.5 0
      vertex 1.46946 -2.02254 0
      vertex 2.02254 -1.46946 0
    endloop
  endfacet
  facet normal 0 0 -1
    outer loop
      vertex 2.5 -2.5 0
      vertex 0.772542 -2.37764 0
      vertex 1.46946 -2.02254 0
    endloop
  endfacet
  facet normal 0 -0 -1
    outer loop
      vertex 0.772542 -2.37764 0
      vertex 2.5 -2.5 0
      vertex 0 -2.5 0
    endloop
  endfacet
  facet normal 0 0 -1
    outer loop
      vertex -0.772542 2.37764 0
      vertex -2.5 2.5 0
      vertex 0 2.5 0
    endloop
  endfacet
  facet normal 0 0 -1
    outer loop
      vertex -1.46946 2.02254 0
      vertex -2.5 2.5 0
      vertex -0.772542 2.37764 0
    endloop
  endfacet
  facet normal 0 0 -1
    outer loop
      vertex -2.02254 1.46946 0
      vertex -2.5 2.5 0
      vertex -1.46946 2.02254 0
    endloop
  endfacet
  facet normal 0 0 -1
    outer loop
      vertex -2.37764 0.772542 0
      vertex -2.5 2.5 0
      vertex -2.02254 1.46946 0
    endloop
  endfacet
  facet normal 0 0 -1
    outer loop
      vertex -2.5 2.5 0
      vertex -2.37764 0.772542 0
      vertex -2.5 0 0
    endloop
  endfacet
  facet normal 0 0 -1
    outer loop
      vertex -2.5 -2.5 0
      vertex -0.772542 -2.37764 0
      vertex 0 -2.5 0
    endloop
  endfacet
  facet normal 0 0 -1
    outer loop
      vertex -2.5 -2.5 0
      vertex -1.46946 -2.02254 0
      vertex -0.772542 -2.37764 0
    endloop
  endfacet
  facet normal 0 0 -1
    outer loop
      vertex -2.5 -2.5 0
      vertex -2.02254 -1.46946 0
      vertex -1.46946 -2.02254 0
    endloop
  endfacet
  facet normal 0 0 -1
    outer loop
      vertex -2.5 -2.5 0
      vertex -2.37764 -0.772542 0
      vertex -2.02254 -1.46946 0
    endloop
  endfacet
  facet normal -0 0 -1
    outer loop
      vertex -2.37764 -0.772542 0
      vertex -2.5 -2.5 0
      vertex -2.5 0 0
    endloop
  endfacet
  facet normal 0 -1 0
    outer loop
      vertex 0 -2.5 0
      vertex -2.5 -2.5 15
      vertex -2.5 -2.5 0
    endloop
  endfacet
  facet normal 0 -1 0
    outer loop
      vertex -2.5 -2.5 15
      vertex 0 -2.5 0
      vertex 2.5 -2.5 15
    endloop
  endfacet
  facet normal 0 -1 -0
    outer loop
      vertex 2.5 -2.5 15
      vertex 0 -2.5 0
      vertex 2.5 -2.5 0
    endloop
  endfacet
  facet normal 0.987688 0.156436 0
    outer loop
      vertex 2.5 0 0
      vertex 2.37764 0.772542 -20
      vertex 2.37764 0.772542 0
    endloop
  endfacet
  facet normal 0.987688 0.156436 0
    outer loop
      vertex 2.37764 0.772542 -20
      vertex 2.5 0 0
      vertex 2.5 0 -20
    endloop
  endfacet
  facet normal -0.987688 0.156436 0
    outer loop
      vertex -2.5 0 -20
      vertex -2.37764 0.772542 0
      vertex -2.37764 0.772542 -20
    endloop
  endfacet
  facet normal -0.987688 0.156436 0
    outer loop
      vertex -2.37764 0.772542 0
      vertex -2.5 0 -20
      vertex -2.5 0 0
    endloop
  endfacet
  facet normal 0.156436 0.987688 -0
    outer loop
      vertex 0.772542 2.37764 -20
      vertex 0 2.5 0
      vertex 0.772542 2.37764 0
    endloop
  endfacet
  facet normal 0.156436 0.987688 0
    outer loop
      vertex 0 2.5 0
      vertex 0.772542 2.37764 -20
      vertex 0 2.5 -20
    endloop
  endfacet
  facet normal -0.156436 -0.987688 0
    outer loop
      vertex -0.772542 -2.37764 -20
      vertex 0 -2.5 0
      vertex -0.772542 -2.37764 0
    endloop
  endfacet
  facet normal -0.156436 -0.987688 -0
    outer loop
      vertex 0 -2.5 0
      vertex -0.772542 -2.37764 -20
      vertex 0 -2.5 -20
    endloop
  endfacet
  facet normal 0 0 -1
    outer loop
      vertex 2.37764 -0.772542 -20
      vertex 2.37764 0.772542 -20
      vertex 2.5 0 -20
    endloop
  endfacet
  facet normal 0 0 -1
    outer loop
      vertex 2.02254 -1.46946 -20
      vertex 2.37764 0.772542 -20
      vertex 2.37764 -0.772542 -20
    endloop
  endfacet
  facet normal 0 0 -1
    outer loop
      vertex 2.02254 -1.46946 -20
      vertex 2.02254 1.46946 -20
      vertex 2.37764 0.772542 -20
    endloop
  endfacet
  facet normal 0 0 -1
    outer loop
      vertex 1.46946 -2.02254 -20
      vertex 2.02254 1.46946 -20
      vertex 2.02254 -1.46946 -20
    endloop
  endfacet
  facet normal 0 0 -1
    outer loop
      vertex 1.46946 -2.02254 -20
      vertex 1.46946 2.02254 -20
      vertex 2.02254 1.46946 -20
    endloop
  endfacet
  facet normal 0 0 -1
    outer loop
      vertex 0.772542 -2.37764 -20
      vertex 1.46946 2.02254 -20
      vertex 1.46946 -2.02254 -20
    endloop
  endfacet
  facet normal 0 0 -1
    outer loop
      vertex 0.772542 -2.37764 -20
      vertex 0.772542 2.37764 -20
      vertex 1.46946 2.02254 -20
    endloop
  endfacet
  facet normal 0 0 -1
    outer loop
      vertex 0 -2.5 -20
      vertex 0.772542 2.37764 -20
      vertex 0.772542 -2.37764 -20
    endloop
  endfacet
  facet normal 0 0 -1
    outer loop
      vertex 0 -2.5 -20
      vertex 0 2.5 -20
      vertex 0.772542 2.37764 -20
    endloop
  endfacet
  facet normal 0 0 -1
    outer loop
      vertex -0.772542 -2.37764 -20
      vertex 0 2.5 -20
      vertex 0 -2.5 -20
    endloop
  endfacet
  facet normal 0 0 -1
    outer loop
      vertex -0.772542 -2.37764 -20
      vertex -0.772542 2.37764 -20
      vertex 0 2.5 -20
    endloop
  endfacet
  facet normal 0 0 -1
    outer loop
      vertex -1.46946 -2.02254 -20
      vertex -0.772542 2.37764 -20
      vertex -0.772542 -2.37764 -20
    endloop
  endfacet
  facet normal 0 0 -1
    outer loop
      vertex -1.46946 -2.02254 -20
      vertex -1.46946 2.02254 -20
      vertex -0.772542 2.37764 -20
    endloop
  endfacet
  facet normal 0 0 -1
    outer loop
      vertex -2.02254 -1.46946 -20
      vertex -1.46946 2.02254 -20
      vertex -1.46946 -2.02254 -20
    endloop
  endfacet
  facet normal 0 0 -1
    outer loop
      vertex -2.02254 -1.46946 -20
      vertex -2.02254 1.46946 -20
      vertex -1.46946 2.02254 -20
    endloop
  endfacet
  facet normal 0 0 -1
    outer loop
      vertex -2.37764 -0.772542 -20
      vertex -2.02254 1.46946 -20
      vertex -2.02254 -1.46946 -20
    endloop
  endfacet
  facet normal 0 0 -1
    outer loop
      vertex -2.37764 -0.772542 -20
      vertex -2.37764 0.772542 -20
      vertex -2.02254 1.46946 -20
    endloop
  endfacet
  facet normal 0 -0 -1
    outer loop
      vertex -2.37764 0.772542 -20
      vertex -2.37764 -0.772542 -20
      vertex -2.5 0 -20
    endloop
  endfacet
  facet normal 0.707107 0.707107 0
    outer loop
      vertex 2.02254 1.46946 0
      vertex 1.46946 2.02254 -20
      vertex 1.46946 2.02254 0
    endloop
  endfacet
  facet normal 0.707107 0.707107 0
    outer loop
      vertex 1.46946 2.02254 -20
      vertex 2.02254 1.46946 0
      vertex 2.02254 1.46946 -20
    endloop
  endfacet
  facet normal 0.891005 0.453993 0
    outer loop
      vertex 2.37764 0.772542 0
      vertex 2.02254 1.46946 -20
      vertex 2.02254 1.46946 0
    endloop
  endfacet
  facet normal 0.891005 0.453993 0
    outer loop
      vertex 2.02254 1.46946 -20
      vertex 2.37764 0.772542 0
      vertex 2.37764 0.772542 -20
    endloop
  endfacet
  facet normal 0.453993 0.891005 -0
    outer loop
      vertex 1.46946 2.02254 -20
      vertex 0.772542 2.37764 0
      vertex 1.46946 2.02254 0
    endloop
  endfacet
  facet normal 0.453993 0.891005 0
    outer loop
      vertex 0.772542 2.37764 0
      vertex 1.46946 2.02254 -20
      vertex 0.772542 2.37764 -20
    endloop
  endfacet
  facet normal -0.453993 0.891005 0
    outer loop
      vertex -0.772542 2.37764 -20
      vertex -1.46946 2.02254 0
      vertex -0.772542 2.37764 0
    endloop
  endfacet
  facet normal -0.453993 0.891005 0
    outer loop
      vertex -1.46946 2.02254 0
      vertex -0.772542 2.37764 -20
      vertex -1.46946 2.02254 -20
    endloop
  endfacet
  facet normal -0.707107 0.707107 0
    outer loop
      vertex -2.02254 1.46946 -20
      vertex -1.46946 2.02254 0
      vertex -1.46946 2.02254 -20
    endloop
  endfacet
  facet normal -0.707107 0.707107 0
    outer loop
      vertex -1.46946 2.02254 0
      vertex -2.02254 1.46946 -20
      vertex -2.02254 1.46946 0
    endloop
  endfacet
  facet normal -0.156436 0.987688 0
    outer loop
      vertex 0 2.5 -20
      vertex -0.772542 2.37764 0
      vertex 0 2.5 0
    endloop
  endfacet
  facet normal -0.156436 0.987688 0
    outer loop
      vertex -0.772542 2.37764 0
      vertex 0 2.5 -20
      vertex -0.772542 2.37764 -20
    endloop
  endfacet
  facet normal 0.891005 -0.453993 0
    outer loop
      vertex 2.02254 -1.46946 0
      vertex 2.37764 -0.772542 -20
      vertex 2.37764 -0.772542 0
    endloop
  endfacet
  facet normal 0.891005 -0.453993 0
    outer loop
      vertex 2.37764 -0.772542 -20
      vertex 2.02254 -1.46946 0
      vertex 2.02254 -1.46946 -20
    endloop
  endfacet
  facet normal -0.707107 -0.707107 0
    outer loop
      vertex -1.46946 -2.02254 -20
      vertex -2.02254 -1.46946 0
      vertex -2.02254 -1.46946 -20
    endloop
  endfacet
  facet normal -0.707107 -0.707107 0
    outer loop
      vertex -2.02254 -1.46946 0
      vertex -1.46946 -2.02254 -20
      vertex -1.46946 -2.02254 0
    endloop
  endfacet
  facet normal -0.987688 -0.156436 0
    outer loop
      vertex -2.37764 -0.772542 -20
      vertex -2.5 0 0
      vertex -2.5 0 -20
    endloop
  endfacet
  facet normal -0.987688 -0.156436 0
    outer loop
      vertex -2.5 0 0
      vertex -2.37764 -0.772542 -20
      vertex -2.37764 -0.772542 0
    endloop
  endfacet
  facet normal -0.891005 0.453993 0
    outer loop
      vertex -2.37764 0.772542 -20
      vertex -2.02254 1.46946 0
      vertex -2.02254 1.46946 -20
    endloop
  endfacet
  facet normal -0.891005 0.453993 0
    outer loop
      vertex -2.02254 1.46946 0
      vertex -2.37764 0.772542 -20
      vertex -2.37764 0.772542 0
    endloop
  endfacet
  facet normal 0.987688 -0.156436 0
    outer loop
      vertex 2.37764 -0.772542 0
      vertex 2.5 0 -20
      vertex 2.5 0 0
    endloop
  endfacet
  facet normal 0.987688 -0.156436 0
    outer loop
      vertex 2.5 0 -20
      vertex 2.37764 -0.772542 0
      vertex 2.37764 -0.772542 -20
    endloop
  endfacet
  facet normal 0.156436 -0.987688 0
    outer loop
      vertex 0 -2.5 -20
      vertex 0.772542 -2.37764 0
      vertex 0 -2.5 0
    endloop
  endfacet
  facet normal 0.156436 -0.987688 0
    outer loop
      vertex 0.772542 -2.37764 0
      vertex 0 -2.5 -20
      vertex 0.772542 -2.37764 -20
    endloop
  endfacet
  facet normal 0.707107 -0.707107 0
    outer loop
      vertex 1.46946 -2.02254 0
      vertex 2.02254 -1.46946 -20
      vertex 2.02254 -1.46946 0
    endloop
  endfacet
  facet normal 0.707107 -0.707107 0
    outer loop
      vertex 2.02254 -1.46946 -20
      vertex 1.46946 -2.02254 0
      vertex 1.46946 -2.02254 -20
    endloop
  endfacet
  facet normal -0.453993 -0.891005 0
    outer loop
      vertex -1.46946 -2.02254 -20
      vertex -0.772542 -2.37764 0
      vertex -1.46946 -2.02254 0
    endloop
  endfacet
  facet normal -0.453993 -0.891005 -0
    outer loop
      vertex -0.772542 -2.37764 0
      vertex -1.46946 -2.02254 -20
      vertex -0.772542 -2.37764 -20
    endloop
  endfacet
  facet normal -0.891005 -0.453993 0
    outer loop
      vertex -2.02254 -1.46946 -20
      vertex -2.37764 -0.772542 0
      vertex -2.37764 -0.772542 -20
    endloop
  endfacet
  facet normal -0.891005 -0.453993 0
    outer loop
      vertex -2.37764 -0.772542 0
      vertex -2.02254 -1.46946 -20
      vertex -2.02254 -1.46946 0
    endloop
  endfacet
  facet normal 0.453993 -0.891005 0
    outer loop
      vertex 0.772542 -2.37764 -20
      vertex 1.46946 -2.02254 0
      vertex 0.772542 -2.37764 0
    endloop
  endfacet
  facet normal 0.453993 -0.891005 0
    outer loop
      vertex 1.46946 -2.02254 0
      vertex 0.772542 -2.37764 -20
      vertex 1.46946 -2.02254 -20
    endloop
  endfacet
  facet normal -1 0 0
    outer loop
      vertex -2.5 33 19.5
      vertex -2.5 48 22
      vertex -2.5 48 19.5
    endloop
  endfacet
  facet normal -1 0 0
    outer loop
      vertex -2.5 33 24.5
      vertex -2.5 48 22
      vertex -2.5 33 19.5
    endloop
  endfacet
  facet normal -1 0 0
    outer loop
      vertex -2.5 48 22
      vertex -2.5 33 24.5
      vertex -2.5 48 24.5
    endloop
  endfacet
  facet normal -0 0 1
    outer loop
      vertex 0 48 24.5
      vertex 2.5 33 24.5
      vertex 2.5 48 24.5
    endloop
  endfacet
  facet normal 0 0 1
    outer loop
      vertex -2.5 33 24.5
      vertex 0 48 24.5
      vertex -2.5 48 24.5
    endloop
  endfacet
  facet normal 0 0 1
    outer loop
      vertex 0 48 24.5
      vertex -2.5 33 24.5
      vertex 2.5 33 24.5
    endloop
  endfacet
  facet normal 1 -0 0
    outer loop
      vertex 2.5 33 24.5
      vertex 2.5 48 22
      vertex 2.5 48 24.5
    endloop
  endfacet
  facet normal 1 0 0
    outer loop
      vertex 2.5 33 19.5
      vertex 2.5 48 22
      vertex 2.5 33 24.5
    endloop
  endfacet
  facet normal 1 0 0
    outer loop
      vertex 2.5 48 22
      vertex 2.5 33 19.5
      vertex 2.5 48 19.5
    endloop
  endfacet
  facet normal 0 0 -1
    outer loop
      vertex 2.5 33 19.5
      vertex 0 48 19.5
      vertex 2.5 48 19.5
    endloop
  endfacet
  facet normal 0 0 -1
    outer loop
      vertex -2.5 33 19.5
      vertex 0 48 19.5
      vertex 2.5 33 19.5
    endloop
  endfacet
  facet normal -0 0 -1
    outer loop
      vertex 0 48 19.5
      vertex -2.5 33 19.5
      vertex -2.5 48 19.5
    endloop
  endfacet
  facet normal 0 -1 0
    outer loop
      vertex -2.5 33 19.5
      vertex 2.5 33 24.5
      vertex -2.5 33 24.5
    endloop
  endfacet
  facet normal 0 -1 -0
    outer loop
      vertex 2.5 33 24.5
      vertex -2.5 33 19.5
      vertex 2.5 33 19.5
    endloop
  endfacet
  facet normal 0 1 0
    outer loop
      vertex 2.5 48 24.5
      vertex 0.772542 48 24.3776
      vertex 0 48 24.5
    endloop
  endfacet
  facet normal 0 1 0
    outer loop
      vertex 2.5 48 24.5
      vertex 1.46946 48 24.0225
      vertex 0.772542 48 24.3776
    endloop
  endfacet
  facet normal 0 1 0
    outer loop
      vertex 2.5 48 24.5
      vertex 2.02254 48 23.4695
      vertex 1.46946 48 24.0225
    endloop
  endfacet
  facet normal 0 1 0
    outer loop
      vertex 2.5 48 24.5
      vertex 2.37764 48 22.7725
      vertex 2.02254 48 23.4695
    endloop
  endfacet
  facet normal -0 1 0
    outer loop
      vertex 2.37764 48 22.7725
      vertex 2.5 48 24.5
      vertex 2.5 48 22
    endloop
  endfacet
  facet normal 0 1 -0
    outer loop
      vertex -0.772542 48 24.3776
      vertex -2.5 48 24.5
      vertex 0 48 24.5
    endloop
  endfacet
  facet normal 0 1 -0
    outer loop
      vertex -1.46946 48 24.0225
      vertex -2.5 48 24.5
      vertex -0.772542 48 24.3776
    endloop
  endfacet
  facet normal 0 1 -0
    outer loop
      vertex -2.02254 48 23.4695
      vertex -2.5 48 24.5
      vertex -1.46946 48 24.0225
    endloop
  endfacet
  facet normal 0 1 -0
    outer loop
      vertex -2.37764 48 22.7725
      vertex -2.5 48 24.5
      vertex -2.02254 48 23.4695
    endloop
  endfacet
  facet normal 0 1 0
    outer loop
      vertex -2.5 48 24.5
      vertex -2.37764 48 22.7725
      vertex -2.5 48 22
    endloop
  endfacet
  facet normal 0 1 0
    outer loop
      vertex -2.37764 48 21.2275
      vertex -2.5 48 19.5
      vertex -2.5 48 22
    endloop
  endfacet
  facet normal 0 1 0
    outer loop
      vertex -2.02254 48 20.5305
      vertex -2.5 48 19.5
      vertex -2.37764 48 21.2275
    endloop
  endfacet
  facet normal 0 1 0
    outer loop
      vertex -1.46946 48 19.9775
      vertex -2.5 48 19.5
      vertex -2.02254 48 20.5305
    endloop
  endfacet
  facet normal 0 1 0
    outer loop
      vertex -0.772542 48 19.6224
      vertex -2.5 48 19.5
      vertex -1.46946 48 19.9775
    endloop
  endfacet
  facet normal 0 1 0
    outer loop
      vertex -2.5 48 19.5
      vertex -0.772542 48 19.6224
      vertex 0 48 19.5
    endloop
  endfacet
  facet normal 0 1 -0
    outer loop
      vertex 2.5 48 19.5
      vertex 2.37764 48 21.2275
      vertex 2.5 48 22
    endloop
  endfacet
  facet normal 0 1 0
    outer loop
      vertex 2.5 48 19.5
      vertex 2.02254 48 20.5305
      vertex 2.37764 48 21.2275
    endloop
  endfacet
  facet normal 0 1 0
    outer loop
      vertex 2.5 48 19.5
      vertex 1.46946 48 19.9775
      vertex 2.02254 48 20.5305
    endloop
  endfacet
  facet normal 0 1 0
    outer loop
      vertex 2.5 48 19.5
      vertex 0.772542 48 19.6224
      vertex 1.46946 48 19.9775
    endloop
  endfacet
  facet normal 0 1 0
    outer loop
      vertex 0.772542 48 19.6224
      vertex 2.5 48 19.5
      vertex 0 48 19.5
    endloop
  endfacet
  facet normal 0.987687 -0 0.156444
    outer loop
      vertex 2.37764 48 22.7725
      vertex 2.5 78 22
      vertex 2.37764 78 22.7725
    endloop
  endfacet
  facet normal 0.987687 0 0.156444
    outer loop
      vertex 2.5 78 22
      vertex 2.37764 48 22.7725
      vertex 2.5 48 22
    endloop
  endfacet
  facet normal -0.987687 0 -0.156444
    outer loop
      vertex -2.37764 48 21.2275
      vertex -2.5 78 22
      vertex -2.37764 78 21.2275
    endloop
  endfacet
  facet normal -0.987687 -0 -0.156444
    outer loop
      vertex -2.5 78 22
      vertex -2.37764 48 21.2275
      vertex -2.5 48 22
    endloop
  endfacet
  facet normal 0.453993 0 -0.891005
    outer loop
      vertex 0.772542 48 19.6224
      vertex 1.46946 78 19.9775
      vertex 1.46946 48 19.9775
    endloop
  endfacet
  facet normal 0.453993 0 -0.891005
    outer loop
      vertex 1.46946 78 19.9775
      vertex 0.772542 48 19.6224
      vertex 0.772542 78 19.6224
    endloop
  endfacet
  facet normal 0.707056 0 0.707158
    outer loop
      vertex 1.46946 78 24.0225
      vertex 2.02254 48 23.4695
      vertex 2.02254 78 23.4695
    endloop
  endfacet
  facet normal 0.707056 0 0.707158
    outer loop
      vertex 2.02254 48 23.4695
      vertex 1.46946 78 24.0225
      vertex 1.46946 48 24.0225
    endloop
  endfacet
  facet normal -0.156486 0 0.98768
    outer loop
      vertex -0.772542 78 24.3776
      vertex 0 48 24.5
      vertex 0 78 24.5
    endloop
  endfacet
  facet normal -0.156486 0 0.98768
    outer loop
      vertex 0 48 24.5
      vertex -0.772542 78 24.3776
      vertex -0.772542 48 24.3776
    endloop
  endfacet
  facet normal 0.453993 0 0.891005
    outer loop
      vertex 0.772542 78 24.3776
      vertex 1.46946 48 24.0225
      vertex 1.46946 78 24.0225
    endloop
  endfacet
  facet normal 0.453993 0 0.891005
    outer loop
      vertex 1.46946 48 24.0225
      vertex 0.772542 78 24.3776
      vertex 0.772542 48 24.3776
    endloop
  endfacet
  facet normal 0 1 0
    outer loop
      vertex 0.772542 78 24.3776
      vertex -0.772542 78 24.3776
      vertex 0 78 24.5
    endloop
  endfacet
  facet normal 0 1 0
    outer loop
      vertex 1.46946 78 24.0225
      vertex -0.772542 78 24.3776
      vertex 0.772542 78 24.3776
    endloop
  endfacet
  facet normal 0 1 0
    outer loop
      vertex 1.46946 78 24.0225
      vertex -1.46946 78 24.0225
      vertex -0.772542 78 24.3776
    endloop
  endfacet
  facet normal 0 1 0
    outer loop
      vertex 2.02254 78 23.4695
      vertex -1.46946 78 24.0225
      vertex 1.46946 78 24.0225
    endloop
  endfacet
  facet normal 0 1 0
    outer loop
      vertex 2.02254 78 23.4695
      vertex -2.02254 78 23.4695
      vertex -1.46946 78 24.0225
    endloop
  endfacet
  facet normal 0 1 0
    outer loop
      vertex 2.37764 78 22.7725
      vertex -2.02254 78 23.4695
      vertex 2.02254 78 23.4695
    endloop
  endfacet
  facet normal 0 1 0
    outer loop
      vertex 2.37764 78 22.7725
      vertex -2.37764 78 22.7725
      vertex -2.02254 78 23.4695
    endloop
  endfacet
  facet normal 0 1 0
    outer loop
      vertex 2.5 78 22
      vertex -2.37764 78 22.7725
      vertex 2.37764 78 22.7725
    endloop
  endfacet
  facet normal 0 1 0
    outer loop
      vertex 2.5 78 22
      vertex -2.5 78 22
      vertex -2.37764 78 22.7725
    endloop
  endfacet
  facet normal 0 1 -0
    outer loop
      vertex 2.37764 78 21.2275
      vertex -2.5 78 22
      vertex 2.5 78 22
    endloop
  endfacet
  facet normal 0 1 0
    outer loop
      vertex 2.37764 78 21.2275
      vertex -2.37764 78 21.2275
      vertex -2.5 78 22
    endloop
  endfacet
  facet normal 0 1 -0
    outer loop
      vertex 2.02254 78 20.5305
      vertex -2.37764 78 21.2275
      vertex 2.37764 78 21.2275
    endloop
  endfacet
  facet normal 0 1 0
    outer loop
      vertex 2.02254 78 20.5305
      vertex -2.02254 78 20.5305
      vertex -2.37764 78 21.2275
    endloop
  endfacet
  facet normal 0 1 -0
    outer loop
      vertex 1.46946 78 19.9775
      vertex -2.02254 78 20.5305
      vertex 2.02254 78 20.5305
    endloop
  endfacet
  facet normal 0 1 0
    outer loop
      vertex 1.46946 78 19.9775
      vertex -1.46946 78 19.9775
      vertex -2.02254 78 20.5305
    endloop
  endfacet
  facet normal 0 1 -0
    outer loop
      vertex 0.772542 78 19.6224
      vertex -1.46946 78 19.9775
      vertex 1.46946 78 19.9775
    endloop
  endfacet
  facet normal 0 1 0
    outer loop
      vertex 0.772542 78 19.6224
      vertex -0.772542 78 19.6224
      vertex -1.46946 78 19.9775
    endloop
  endfacet
  facet normal -0 1 0
    outer loop
      vertex -0.772542 78 19.6224
      vertex 0.772542 78 19.6224
      vertex 0 78 19.5
    endloop
  endfacet
  facet normal 0.707056 0 -0.707158
    outer loop
      vertex 2.02254 48 20.5305
      vertex 1.46946 78 19.9775
      vertex 2.02254 78 20.5305
    endloop
  endfacet
  facet normal 0.707056 0 -0.707158
    outer loop
      vertex 1.46946 78 19.9775
      vertex 2.02254 48 20.5305
      vertex 1.46946 48 19.9775
    endloop
  endfacet
  facet normal 0.891027 -0 0.453951
    outer loop
      vertex 2.02254 48 23.4695
      vertex 2.37764 78 22.7725
      vertex 2.02254 78 23.4695
    endloop
  endfacet
  facet normal 0.891027 0 0.453951
    outer loop
      vertex 2.37764 78 22.7725
      vertex 2.02254 48 23.4695
      vertex 2.37764 48 22.7725
    endloop
  endfacet
  facet normal 0.156486 0 0.98768
    outer loop
      vertex 0 78 24.5
      vertex 0.772542 48 24.3776
      vertex 0.772542 78 24.3776
    endloop
  endfacet
  facet normal 0.156486 0 0.98768
    outer loop
      vertex 0.772542 48 24.3776
      vertex 0 78 24.5
      vertex 0 48 24.5
    endloop
  endfacet
  facet normal -0.987687 0 0.156444
    outer loop
      vertex -2.5 48 22
      vertex -2.37764 78 22.7725
      vertex -2.5 78 22
    endloop
  endfacet
  facet normal -0.987687 0 0.156444
    outer loop
      vertex -2.37764 78 22.7725
      vertex -2.5 48 22
      vertex -2.37764 48 22.7725
    endloop
  endfacet
  facet normal -0.453993 0 0.891005
    outer loop
      vertex -1.46946 78 24.0225
      vertex -0.772542 48 24.3776
      vertex -0.772542 78 24.3776
    endloop
  endfacet
  facet normal -0.453993 0 0.891005
    outer loop
      vertex -0.772542 48 24.3776
      vertex -1.46946 78 24.0225
      vertex -1.46946 48 24.0225
    endloop
  endfacet
  facet normal -0.891027 0 0.453951
    outer loop
      vertex -2.37764 48 22.7725
      vertex -2.02254 78 23.4695
      vertex -2.37764 78 22.7725
    endloop
  endfacet
  facet normal -0.891027 0 0.453951
    outer loop
      vertex -2.02254 78 23.4695
      vertex -2.37764 48 22.7725
      vertex -2.02254 48 23.4695
    endloop
  endfacet
  facet normal 0.891027 0 -0.453951
    outer loop
      vertex 2.37764 48 21.2275
      vertex 2.02254 78 20.5305
      vertex 2.37764 78 21.2275
    endloop
  endfacet
  facet normal 0.891027 0 -0.453951
    outer loop
      vertex 2.02254 78 20.5305
      vertex 2.37764 48 21.2275
      vertex 2.02254 48 20.5305
    endloop
  endfacet
  facet normal 0.156486 0 -0.98768
    outer loop
      vertex 0 48 19.5
      vertex 0.772542 78 19.6224
      vertex 0.772542 48 19.6224
    endloop
  endfacet
  facet normal 0.156486 0 -0.98768
    outer loop
      vertex 0.772542 78 19.6224
      vertex 0 48 19.5
      vertex 0 78 19.5
    endloop
  endfacet
  facet normal -0.453993 0 -0.891005
    outer loop
      vertex -1.46946 48 19.9775
      vertex -0.772542 78 19.6224
      vertex -0.772542 48 19.6224
    endloop
  endfacet
  facet normal -0.453993 0 -0.891005
    outer loop
      vertex -0.772542 78 19.6224
      vertex -1.46946 48 19.9775
      vertex -1.46946 78 19.9775
    endloop
  endfacet
  facet normal -0.891027 0 -0.453951
    outer loop
      vertex -2.02254 48 20.5305
      vertex -2.37764 78 21.2275
      vertex -2.02254 78 20.5305
    endloop
  endfacet
  facet normal -0.891027 -0 -0.453951
    outer loop
      vertex -2.37764 78 21.2275
      vertex -2.02254 48 20.5305
      vertex -2.37764 48 21.2275
    endloop
  endfacet
  facet normal -0.707056 0 -0.707158
    outer loop
      vertex -1.46946 48 19.9775
      vertex -2.02254 78 20.5305
      vertex -1.46946 78 19.9775
    endloop
  endfacet
  facet normal -0.707056 -0 -0.707158
    outer loop
      vertex -2.02254 78 20.5305
      vertex -1.46946 48 19.9775
      vertex -2.02254 48 20.5305
    endloop
  endfacet
  facet normal -0.707056 0 0.707158
    outer loop
      vertex -2.02254 78 23.4695
      vertex -1.46946 48 24.0225
      vertex -1.46946 78 24.0225
    endloop
  endfacet
  facet normal -0.707056 0 0.707158
    outer loop
      vertex -1.46946 48 24.0225
      vertex -2.02254 78 23.4695
      vertex -2.02254 48 23.4695
    endloop
  endfacet
  facet normal 0.987687 0 -0.156444
    outer loop
      vertex 2.5 48 22
      vertex 2.37764 78 21.2275
      vertex 2.5 78 22
    endloop
  endfacet
  facet normal 0.987687 0 -0.156444
    outer loop
      vertex 2.37764 78 21.2275
      vertex 2.5 48 22
      vertex 2.37764 48 21.2275
    endloop
  endfacet
  facet normal -0.156486 0 -0.98768
    outer loop
      vertex -0.772542 48 19.6224
      vertex 0 78 19.5
      vertex 0 48 19.5
    endloop
  endfacet
  facet normal -0.156486 0 -0.98768
    outer loop
      vertex 0 78 19.5
      vertex -0.772542 48 19.6224
      vertex -0.772542 78 19.6224
    endloop
  endfacet
endsolid OpenSCAD_Model
