<?xml version="1.0" encoding="UTF-8" standalone="no"?>
<!-- Created with Inkscape (http://www.inkscape.org/) -->

<svg
   xmlns:dc="http://purl.org/dc/elements/1.1/"
   xmlns:cc="http://creativecommons.org/ns#"
   xmlns:rdf="http://www.w3.org/1999/02/22-rdf-syntax-ns#"
   xmlns:svg="http://www.w3.org/2000/svg"
   xmlns="http://www.w3.org/2000/svg"
   xmlns:sodipodi="http://sodipodi.sourceforge.net/DTD/sodipodi-0.dtd"
   xmlns:inkscape="http://www.inkscape.org/namespaces/inkscape"
   width="210mm"
   height="297mm"
   viewBox="0 0 210 297"
   version="1.1"
   id="svg52"
   inkscape:version="0.92.4 (5da689c313, 2019-01-14)"
   sodipodi:docname="spiral.svg">
  <defs
     id="defs46">
    <clipPath
       id="p41437d75c8">
      <path
         inkscape:connector-curvature="0"
         d="m 229.68469,124.25954 c 0,-12.8982 -2.54066,-25.670975 -7.47658,-37.587353 -4.93593,-11.916377 -12.17113,-22.744614 -21.29153,-31.865014 -9.1204,-9.120401 -19.94863,-16.355597 -31.86501,-21.291522 -11.91638,-4.935925 -24.68915,-7.476589 -37.58735,-7.476589 -12.89819,0 -25.67097,2.540664 -37.587345,7.476589 -11.916378,4.935925 -22.744614,12.171121 -31.865015,21.291522 -9.1204,9.1204 -16.355596,19.948637 -21.291522,31.865014 -4.935925,11.916378 -7.476588,24.689153 -7.476588,37.587353 0,12.89819 2.540663,25.67096 7.476588,37.58734 4.935926,11.91638 12.171122,22.74462 21.291522,31.86502 9.120401,9.1204 19.948637,16.35559 31.865015,21.29152 11.916375,4.93592 24.689155,7.47659 37.587345,7.47659 12.8982,0 25.67097,-2.54067 37.58735,-7.47659 11.91638,-4.93593 22.74461,-12.17112 31.86501,-21.29152 9.1204,-9.1204 16.3556,-19.94864 21.29153,-31.86502 4.93592,-11.91638 7.47658,-24.68915 7.47658,-37.58734 m -98.22047,0 c 0,0 0,0 0,0 0,0 0,0 0,0 0,0 0,0 0,0 0,0 0,0 0,0 0,0 0,0 0,0 0,0 0,0 0,0 0,0 0,0 0,0 0,0 0,0 0,0 0,0 0,0 0,0 0,0 0,0 0,0 0,0 0,0 0,0 0,0 0,0 0,0 0,0 0,0 0,0 0,0 0,0 0,0 0,0 0,0 0,0 0,0 0,0 0,0 m 98.22047,0 z"
         id="path17" />
    </clipPath>
    <clipPath
       id="clipPath40">
      <path
         inkscape:connector-curvature="0"
         d="m 229.68469,124.25954 c 0,-12.8982 -2.54066,-25.670975 -7.47658,-37.587353 -4.93593,-11.916377 -12.17113,-22.744614 -21.29153,-31.865014 -9.1204,-9.120401 -19.94863,-16.355597 -31.86501,-21.291522 -11.91638,-4.935925 -24.68915,-7.476589 -37.58735,-7.476589 -12.89819,0 -25.67097,2.540664 -37.587345,7.476589 -11.916378,4.935925 -22.744614,12.171121 -31.865015,21.291522 -9.1204,9.1204 -16.355596,19.948637 -21.291522,31.865014 -4.935925,11.916378 -7.476588,24.689153 -7.476588,37.587353 0,12.89819 2.540663,25.67096 7.476588,37.58734 4.935926,11.91638 12.171122,22.74462 21.291522,31.86502 9.120401,9.1204 19.948637,16.35559 31.865015,21.29152 11.916375,4.93592 24.689155,7.47659 37.587345,7.47659 12.8982,0 25.67097,-2.54067 37.58735,-7.47659 11.91638,-4.93593 22.74461,-12.17112 31.86501,-21.29152 9.1204,-9.1204 16.3556,-19.94864 21.29153,-31.86502 4.93592,-11.91638 7.47658,-24.68915 7.47658,-37.58734 m -98.22047,0 c 0,0 0,0 0,0 0,0 0,0 0,0 0,0 0,0 0,0 0,0 0,0 0,0 0,0 0,0 0,0 0,0 0,0 0,0 0,0 0,0 0,0 0,0 0,0 0,0 0,0 0,0 0,0 0,0 0,0 0,0 0,0 0,0 0,0 0,0 0,0 0,0 0,0 0,0 0,0 0,0 0,0 0,0 0,0 0,0 0,0 0,0 0,0 0,0 m 98.22047,0 z"
         id="path38" />
    </clipPath>
  </defs>
  <sodipodi:namedview
     id="base"
     pagecolor="#ffffff"
     bordercolor="#666666"
     borderopacity="1.0"
     inkscape:pageopacity="0.0"
     inkscape:pageshadow="2"
     inkscape:zoom="0.35"
     inkscape:cx="400"
     inkscape:cy="560"
     inkscape:document-units="mm"
     inkscape:current-layer="layer1"
     showgrid="false"
     inkscape:window-width="2560"
     inkscape:window-height="1376"
     inkscape:window-x="0"
     inkscape:window-y="27"
     inkscape:window-maximized="1" />
  <metadata
     id="metadata49">
    <rdf:RDF>
      <cc:Work
         rdf:about="">
        <dc:format>image/svg+xml</dc:format>
        <dc:type
           rdf:resource="http://purl.org/dc/dcmitype/StillImage" />
        <dc:title></dc:title>
      </cc:Work>
    </rdf:RDF>
  </metadata>
  <g
     inkscape:label="Layer 1"
     inkscape:groupmode="layer"
     id="layer1">
    <g
       transform="matrix(0.45482553,0,0,0.45482553,-15.293286,199.86691)"
       id="line2d_1">
      <path
         inkscape:connector-curvature="0"
         clip-path="url(#p41437d75c8)"
         d="m 86.962387,128.10766 1.4e-4,3.16271 0.22644,3.18125 0.455309,3.18349 0.685565,3.16917 0.916007,3.13811 1.145411,3.09022 1.372542,3.0255 1.596162,2.94401 1.815031,2.84597 2.02792,2.73162 2.233615,2.60134 2.430921,2.45557 2.61868,2.29487 2.79574,2.11984 2.96105,1.93123 3.11355,1.72982 3.25225,1.51647 3.37623,1.29216 3.48464,1.0579 3.06074,0.71356 3.11766,0.53002 3.1635,0.34221 3.19798,0.1508 3.22081,-0.0435 3.23178,-0.23999 3.23071,-0.43793 3.21746,-0.63661 3.19194,-0.83523 3.15412,-1.03308 3.10399,-1.22936 3.0416,-1.42331 2.96708,-1.61418 2.88054,-1.80118 2.78221,-1.98358 2.67231,-2.16061 2.55113,-2.33156 2.41904,-2.4957 2.2764,-2.65233 2.12362,-2.80078 1.96121,-2.94039 1.78967,-3.07055 1.60953,-3.19064 1.42141,-3.30012 1.22594,-3.39845 1.02377,-3.48515 0.8156,-3.55977 0.60215,-3.62189 0.38418,-3.67115 0.16248,-3.70724 -0.0622,-3.72988 -0.28894,-3.73885 -0.517,-3.73398 -0.7455,-3.71515 -0.97358,-3.68227 -1.20039,-3.635357 -1.42503,-3.574424 -1.64665,-3.499572 -1.86441,-3.410942 -2.0774,-3.308734 -2.28482,-3.193201 -2.48581,-3.064647 -2.67955,-2.92343 -2.86526,-2.769959 -3.04214,-2.604693 -3.20946,-2.42814 -3.36649,-2.240859 -3.51256,-2.043447 -3.647,-1.836554 -3.7692,-1.620864 -3.8786,-1.397106 -3.97465,-1.166043 -4.05689,-0.928474 -4.12487,-0.685228 -4.1782,-0.437166 -4.21657,-0.185171 -4.23967,0.06985 -4.24729,0.326966 -4.23928,0.585239 -4.2155,0.843711 -4.17591,1.10142 -4.12052,1.357392 -4.04939,1.61066 -3.962661,1.860251 -3.860507,2.105203 -3.128098,1.937444 -3.037992,2.099942 -2.939435,2.258256 -2.832621,2.411943 -2.717767,2.560574 -2.595114,2.703728 -2.464923,2.840995 -2.327476,2.97198 -2.183078,3.096297 -2.032054,3.213581 -1.874746,3.323477 -1.711519,3.425651 -1.54275,3.519781 -1.368839,3.60558 -1.190198,3.68275 -1.007257,3.75105 -0.820457,3.81023 -0.630253,3.86008 -0.437115,3.9004 -0.24152,3.93105 -0.04395,3.95184 0.155085,3.96269 0.355094,3.96348 0.555564,3.95415 0.755982,3.93465 0.955832,3.90497 1.154593,3.86512 1.351749,3.81513 1.54678,3.75506 1.739168,3.68499 1.928404,3.60506 2.113979,3.51539 2.29539,3.41615 2.472145,3.30754 2.643759,3.18977 2.809756,3.0631 2.969674,2.92777 3.123063,2.7841 3.269485,2.6324 3.408523,2.47298 3.539767,2.30625 3.662837,2.13254 3.777358,1.9523 3.882983,1.76592 3.9794,1.57384 4.06628,1.37654 4.14335,1.17448 4.21036,0.96814 4.26706,0.75803 4.31325,0.54469 4.34875,0.3286 4.37339,0.11034 4.38705,-0.10958 4.38963,-0.33056 4.38105,-0.55209 4.36126,-0.77357 4.33026,-0.99444 4.28804,-1.21415 4.23464,-1.43211 4.17016,-1.64774 4.09467,-1.86051 4.00831,-2.06982 3.91122,-2.27514 3.80361,-2.47591 3.68568,-2.67158 3.55766,-2.86164 3.41983,-3.04555 3.2725,-3.22282 3.11596,-3.39294 2.95059,-3.55544 2.77672,-3.70988 2.59479,-3.85578 2.40519,-3.99274 2.20837,-4.12037 2.00479,-4.23826 1.79493,-4.34608 1.5793,-4.44347 1.35841,-4.53014 1.13279,-4.60581 0.903,-4.67022 0.6696,-4.72312 0.43316,-4.76435 v 0"
         style="fill:none;stroke:#1f77b4;stroke-width:4;stroke-linecap:square"
         id="path9" />
    </g>
    <g
       transform="matrix(0.45482553,0,0,0.45482553,-15.293286,199.86691)"
       id="line2d_2">
      <path
         inkscape:connector-curvature="0"
         clip-path="url(#p41437d75c8)"
         d="m 175.96606,120.41141 -1.4e-4,-3.16271 -0.22644,-3.18125 -0.45531,-3.18349 -0.68557,-3.16917 -0.916,-3.13811 -1.14541,-3.09022 -1.37255,-3.025498 -1.59616,-2.944016 -1.81503,-2.845968 -2.02792,-2.731621 -2.23361,-2.601339 -2.43093,-2.455573 -2.61867,-2.294865 -2.79575,-2.119845 -2.96105,-1.931229 -3.11354,-1.729813 -3.25225,-1.516472 -3.37623,-1.292159 -3.48465,-1.057898 -3.06074,-0.713568 -3.11765,-0.530019 -3.16351,-0.342208 -3.19797,-0.150804 -3.22081,0.0435 -3.23179,0.239986 -3.2307,0.437935 -3.21746,0.636603 -3.19195,0.835237 -3.15411,1.033078 -3.10399,1.229358 -3.04161,1.423314 -2.967075,1.614175 -2.880544,1.801182 -2.782205,1.983577 -2.672308,2.160615 -2.551139,2.33156 -2.419039,2.495699 -2.276392,2.652331 -2.123626,2.800779 -1.961211,2.940392 -1.789662,3.070544 -1.609533,3.19064 -1.421415,3.30012 -1.225939,3.39845 -1.023767,3.48515 -0.815596,3.55977 -0.602151,3.62189 -0.384187,3.67115 -0.162479,3.70724 0.06217,3.72988 0.288941,3.73885 0.517002,3.73398 0.745501,3.71515 0.973583,3.68227 1.200382,3.63536 1.42503,3.57442 1.646659,3.49957 1.864404,3.41094 2.077406,3.30874 2.28482,3.1932 2.485807,3.06465 2.679551,2.92343 2.865254,2.76996 3.042139,2.60469 3.20946,2.42814 3.366499,2.24086 3.51255,2.04344 3.647,1.83656 3.7692,1.62086 3.8786,1.39711 3.97466,1.16604 4.05689,0.92848 4.12486,0.68522 4.17821,0.43717 4.21656,0.18517 4.23967,-0.0699 4.2473,-0.32696 4.23927,-0.58524 4.2155,-0.84371 4.17591,-1.10142 4.12052,-1.3574 4.04939,-1.61066 3.96267,-1.86025 3.8605,-2.1052 3.1281,-1.93744 3.03799,-2.09995 2.93944,-2.25825 2.83262,-2.41194 2.71777,-2.56058 2.59511,-2.70373 2.46492,-2.84099 2.32748,-2.97198 2.18308,-3.0963 2.03205,-3.21358 1.87475,-3.32348 1.71152,-3.42565 1.54275,-3.51978 1.36883,-3.60558 1.1902,-3.68275 1.00726,-3.75105 0.82046,-3.81023 0.63025,-3.86008 0.43711,-3.9004 0.24152,-3.93105 0.044,-3.95184 -0.15509,-3.96269 -0.35509,-3.96348 -0.55556,-3.95415 -0.75599,-3.93465 -0.95583,-3.904972 -1.15459,-3.86512 -1.35175,-3.815126 -1.54678,-3.755055 -1.73917,-3.684995 -1.9284,-3.605058 -2.11398,-3.515389 -2.29539,-3.416152 -2.47215,-3.30754 -2.64376,-3.189775 -2.80975,-3.063095 -2.96968,-2.927774 -3.12306,-2.784101 -3.26948,-2.632392 -3.40853,-2.472986 -3.53976,-2.306244 -3.66284,-2.132546 -3.77736,-1.952297 -3.88299,-1.765917 -3.97939,-1.573845 -4.06628,-1.37654 -4.14335,-1.174475 -4.21036,-0.968141 -4.26706,-0.758037 -4.31325,-0.544683 -4.34875,-0.328602 -4.37339,-0.110337 -4.38706,0.109572 -4.38963,0.330565 -4.38105,0.552087 -4.36126,0.77357 -4.33025,0.994447 -4.288041,1.214149 -4.234648,1.432105 -4.17016,1.647746 -4.09467,1.860506 -4.008306,2.069823 -3.911224,2.27514 -3.803609,2.475906 -3.685674,2.671583 -3.55766,2.861637 -3.419837,3.045551 -3.272497,3.222816 -3.115963,3.392939 -2.950582,3.555446 -2.776726,3.709874 -2.594788,3.855782 -2.40519,3.992746 -2.208369,4.120367 -2.004791,4.238262 -1.794933,4.346075 -1.5793,4.44347 -1.358407,4.53014 -1.132791,4.60581 -0.902999,4.67022 -0.669597,4.72312 -0.433161,4.76435 v 0"
         style="fill:none;stroke:#ff7f0e;stroke-width:4;stroke-linecap:square"
         id="path12" />
    </g>
  </g>
</svg>
