<?xml version="1.0" encoding="utf-8" standalone="no"?>
<!DOCTYPE svg PUBLIC "-//W3C//DTD SVG 1.1//EN"
  "http://www.w3.org/Graphics/SVG/1.1/DTD/svg11.dtd">
<svg xmlns:xlink="http://www.w3.org/1999/xlink" width="450.935433pt" height="450.935433pt" viewBox="0 0 450.935433 450.935433" xmlns="http://www.w3.org/2000/svg" version="1.1">
 <metadata>
  <rdf:RDF xmlns:dc="http://purl.org/dc/elements/1.1/" xmlns:cc="http://creativecommons.org/ns#" xmlns:rdf="http://www.w3.org/1999/02/22-rdf-syntax-ns#">
   <cc:Work>
    <dc:type rdf:resource="http://purl.org/dc/dcmitype/StillImage"/>
    <dc:date>2022-07-06T21:44:43.920643</dc:date>
    <dc:format>image/svg+xml</dc:format>
    <dc:creator>
     <cc:Agent>
      <dc:title>Matplotlib v3.5.2, https://matplotlib.org/</dc:title>
     </cc:Agent>
    </dc:creator>
   </cc:Work>
  </rdf:RDF>
 </metadata>
 <defs>
  <style type="text/css">*{stroke-linejoin: round; stroke-linecap: butt}</style>
 </defs>
 <g id="figure_1">
  <g id="axes_1">
   <g id="line2d_1">
    <path d="M 262.166613 225.467717 
L 264.167036 223.531136 
L 266.060494 221.394853 
L 267.832046 219.064974 
L 269.467105 216.548599 
L 270.9515 213.8538 
L 272.271542 210.989597 
L 273.414075 207.965929 
L 274.366543 204.793624 
L 275.117037 201.484361 
L 275.654352 198.050632 
L 275.968041 194.505704 
L 276.04846 190.863568 
L 275.886814 187.138897 
L 275.475206 183.34699 
L 274.806669 179.503723 
L 273.875211 175.625494 
L 272.675846 171.729158 
L 271.204623 167.831978 
L 269.458657 163.951551 
L 267.43615 160.105754 
L 265.136411 156.312674 
L 262.559873 152.590544 
L 259.708105 148.957673 
L 257.23031 146.127954 
L 254.580001 143.37644 
L 251.759566 140.712439 
L 248.771864 138.145188 
L 245.620222 135.683833 
L 242.308432 133.337404 
L 238.840746 131.114791 
L 235.221872 129.024727 
L 231.456967 127.075759 
L 227.551632 125.276233 
L 223.5119 123.634266 
L 219.34423 122.157727 
L 215.055494 120.85422 
L 210.652969 119.731055 
L 206.144322 118.795235 
L 201.537595 118.053436 
L 196.841198 117.511982 
L 192.063885 117.176835 
L 187.214743 117.05357 
L 182.303177 117.147364 
L 177.338886 117.462974 
L 172.331851 118.004728 
L 167.292311 118.776503 
L 162.230745 119.781719 
L 157.157854 121.023319 
L 152.084533 122.503761 
L 147.021857 124.225008 
L 141.981053 126.188513 
L 136.973478 128.395215 
L 132.010598 130.845528 
L 127.103962 133.539336 
L 122.265177 136.475985 
L 117.505886 139.654281 
L 112.837741 143.072482 
L 108.272381 146.728301 
L 103.8214 150.618898 
L 99.49633 154.740886 
L 95.308609 159.09033 
L 91.26956 163.662745 
L 87.390361 168.453106 
L 83.682024 173.455845 
L 80.155367 178.664864 
L 76.82099 184.073537 
L 73.689248 189.674717 
L 70.77023 195.46075 
L 68.073733 201.423481 
L 65.609236 207.554264 
L 63.38588 213.843982 
L 61.412443 220.28305 
L 59.697319 226.861439 
L 58.248494 233.568684 
L 57.073527 240.393907 
L 56.17953 247.325831 
L 55.697432 252.587798 
L 55.379749 257.898182 
L 55.228946 263.251823 
L 55.247326 268.643457 
L 55.437025 274.06772 
L 55.800007 279.519153 
L 56.338064 284.992212 
L 57.05281 290.481267 
L 57.945676 295.980614 
L 59.017911 301.484475 
L 60.270576 306.987009 
L 61.704542 312.482315 
L 63.320488 317.964439 
L 65.118897 323.42738 
L 67.100055 328.865096 
L 69.264051 334.271513 
L 71.610771 339.640528 
L 74.139899 344.966017 
L 76.850916 350.241844 
L 79.743097 355.461864 
L 82.815513 360.61993 
L 86.067028 365.709904 
L 89.496297 370.72566 
L 93.101772 375.661092 
L 96.881695 380.510119 
L 100.834101 385.266698 
L 104.956821 389.924824 
L 109.247478 394.478539 
L 113.703493 398.921942 
L 118.322081 403.249192 
L 123.100255 407.454519 
L 126.372799 410.187518 
L 126.372799 410.187518 
" clip-path="url(#p2eb9b6ba30)" style="fill: none; stroke: #1f77b4; stroke-width: 4; stroke-linecap: square"/>
   </g>
  </g>
 </g>
 <defs>
  <clipPath id="p2eb9b6ba30">
   <path d="M 443.735433 225.467717 
C 443.735433 196.805063 438.089515 168.421117 427.120792 141.940278 
C 416.15207 115.459438 400.073856 91.396691 379.806299 71.129134 
C 359.538742 50.861577 335.475995 34.783363 308.995155 23.814641 
C 282.514316 12.845918 254.13037 7.2 225.467717 7.2 
C 196.805063 7.2 168.421117 12.845918 141.940278 23.814641 
C 115.459438 34.783363 91.396691 50.861577 71.129134 71.129134 
C 50.861577 91.396691 34.783363 115.459438 23.814641 141.940278 
C 12.845918 168.421117 7.2 196.805063 7.2 225.467717 
C 7.2 254.13037 12.845918 282.514316 23.814641 308.995155 
C 34.783363 335.475995 50.861577 359.538742 71.129134 379.806299 
C 91.396691 400.073856 115.459438 416.15207 141.940278 427.120792 
C 168.421117 438.089515 196.805063 443.735433 225.467717 443.735433 
C 254.13037 443.735433 282.514316 438.089515 308.995155 427.120792 
C 335.475995 416.15207 359.538742 400.073856 379.806299 379.806299 
C 400.073856 359.538742 416.15207 335.475995 427.120792 308.995155 
C 438.089515 282.514316 443.735433 254.13037 443.735433 225.467717 
M 225.467717 225.467717 
C 225.467717 225.467717 225.467717 225.467717 225.467717 225.467717 
C 225.467717 225.467717 225.467717 225.467717 225.467717 225.467717 
C 225.467717 225.467717 225.467717 225.467717 225.467717 225.467717 
C 225.467717 225.467717 225.467717 225.467717 225.467717 225.467717 
C 225.467717 225.467717 225.467717 225.467717 225.467717 225.467717 
C 225.467717 225.467717 225.467717 225.467717 225.467717 225.467717 
C 225.467717 225.467717 225.467717 225.467717 225.467717 225.467717 
C 225.467717 225.467717 225.467717 225.467717 225.467717 225.467717 
C 225.467717 225.467717 225.467717 225.467717 225.467717 225.467717 
C 225.467717 225.467717 225.467717 225.467717 225.467717 225.467717 
C 225.467717 225.467717 225.467717 225.467717 225.467717 225.467717 
C 225.467717 225.467717 225.467717 225.467717 225.467717 225.467717 
C 225.467717 225.467717 225.467717 225.467717 225.467717 225.467717 
C 225.467717 225.467717 225.467717 225.467717 225.467717 225.467717 
C 225.467717 225.467717 225.467717 225.467717 225.467717 225.467717 
C 225.467717 225.467717 225.467717 225.467717 225.467717 225.467717 
M 443.735433 225.467717 
z
"/>
  </clipPath>
 </defs>
</svg>
