<?xml version="1.0" encoding="utf-8" standalone="no"?>
<!DOCTYPE svg PUBLIC "-//W3C//DTD SVG 1.1//EN"
  "http://www.w3.org/Graphics/SVG/1.1/DTD/svg11.dtd">
<!-- Created with matplotlib (http://matplotlib.org/) -->
<svg height="248.51907pt" version="1.1" viewBox="0 0 256.565945 248.51907" width="256.565945pt" xmlns="http://www.w3.org/2000/svg" xmlns:xlink="http://www.w3.org/1999/xlink">
 <defs>
  <style type="text/css">
*{stroke-linecap:butt;stroke-linejoin:round;}
  </style>
 </defs>
 <g id="figure_1">
  <g id="patch_1">
   <path d="M 0 248.51907 
L 256.565945 248.51907 
L 256.565945 0 
L 0 0 
z
" style="fill:none;"/>
  </g>
  <g id="axes_1">
   <g id="line2d_1">
    <path clip-path="url(#p8e6fc611b6)" d="M 171.776165 124.259535 
L 172.147089 121.407074 
L 172.314142 118.502887 
L 172.271922 115.561682 
L 172.016098 112.598668 
L 171.54345 109.629475 
L 170.851911 106.670075 
L 169.940597 103.736693 
L 168.809831 100.845723 
L 167.461163 98.013636 
L 165.897382 95.256885 
L 164.12252 92.591818 
L 162.141852 90.034579 
L 159.961884 87.601016 
L 157.590339 85.306586 
L 155.036133 83.166263 
L 152.309344 81.194446 
L 149.421177 79.404868 
L 146.383917 77.810511 
L 143.210876 76.423521 
L 139.916342 75.255127 
L 136.51551 74.315562 
L 133.024412 73.613995 
L 129.459846 73.158463 
L 125.839289 72.955804 
L 122.705078 72.987636 
L 119.554685 73.212141 
L 116.400023 73.631357 
L 113.25319 74.246582 
L 110.126421 75.058359 
L 107.032045 76.066462 
L 103.982433 77.269892 
L 100.989949 78.666867 
L 98.066904 80.254819 
L 95.225502 82.0304 
L 92.477794 83.989476 
L 89.835624 86.127144 
L 87.310582 88.437734 
L 84.913954 90.914827 
L 82.656675 93.551269 
L 80.549277 96.339191 
L 78.601848 99.27003 
L 76.823983 102.334558 
L 75.224741 105.522908 
L 73.812603 108.824604 
L 72.595433 112.228599 
L 71.580437 115.723308 
L 70.774128 119.296651 
L 70.182293 122.93609 
L 69.809962 126.628677 
L 69.661379 130.361097 
L 69.739973 134.119721 
L 70.048343 137.890649 
L 70.588229 141.659767 
L 71.360504 145.412795 
L 72.365154 149.135345 
L 73.601273 152.812976 
L 75.067052 156.431244 
L 76.75978 159.975766 
L 78.675842 163.432273 
L 80.810726 166.786664 
L 83.159027 170.025068 
L 85.714459 173.133898 
L 88.469873 176.099907 
L 91.417272 178.910241 
L 94.547834 181.552498 
L 97.851938 184.014775 
L 101.31919 186.285725 
L 104.93846 188.354602 
L 108.697912 190.211312 
L 112.585045 191.846459 
L 116.586735 193.251387 
L 120.689276 194.418219 
L 124.878431 195.339903 
L 129.139477 196.01024 
L 133.457261 196.423918 
L 137.81625 196.576547 
L 142.200589 196.464677 
L 145.861947 196.167587 
L 149.520278 195.684164 
L 153.166068 195.013979 
L 156.789751 194.157087 
L 160.381738 193.114036 
L 163.932439 191.885869 
L 167.432289 190.474123 
L 170.871776 188.88083 
L 174.241463 187.108515 
L 177.532018 185.160197 
L 180.734237 183.03938 
L 183.839067 180.75005 
L 186.837638 178.296669 
L 189.721281 175.684165 
L 192.481557 172.917926 
L 195.11028 170.003785 
L 197.599539 166.948012 
L 199.941724 163.757297 
L 202.129546 160.43874 
L 204.156061 156.999833 
L 206.014688 153.448443 
L 207.699233 149.792795 
L 209.203906 146.041453 
L 210.523339 142.203299 
L 211.652606 138.287514 
L 212.587237 134.303555 
L 213.323232 130.261131 
L 213.85708 126.170181 
L 214.185769 122.04085 
L 214.306795 117.883463 
L 214.218179 113.708496 
L 213.918469 109.526557 
L 213.406754 105.348352 
L 212.682667 101.184662 
L 211.746388 97.046312 
L 210.598655 92.944145 
L 209.240759 88.888994 
L 207.674546 84.891653 
L 205.902419 80.962845 
L 203.927335 77.113199 
L 201.752798 73.353218 
L 199.38286 69.693253 
L 196.822107 66.14347 
L 194.075657 62.713826 
L 191.149146 59.414043 
L 188.048721 56.253574 
L 184.781025 53.241586 
L 181.353183 50.386923 
L 177.772787 47.698091 
L 174.047881 45.183225 
L 170.186942 42.850071 
L 166.198861 40.705959 
L 162.092922 38.757785 
L 157.878782 37.011983 
L 153.566447 35.474515 
L 149.166248 34.150844 
L 144.68882 33.045917 
L 140.14507 32.164153 
L 135.546156 31.509426 
L 130.903457 31.085047 
L 126.228546 30.893758 
L 121.53316 30.937718 
L 116.82917 31.21849 
L 112.128554 31.73704 
L 107.443363 32.493724 
L 102.785692 33.488287 
L 99.087508 34.454646 
L 99.087508 34.454646 
" style="fill:none;stroke:#1f77b4;stroke-linecap:square;stroke-width:4;"/>
   </g>
  </g>
 </g>
 <defs>
  <clipPath id="p8e6fc611b6">
   <path d="M 229.684695 124.259535 
C 229.684695 111.361341 227.144032 98.588565 222.208107 86.672187 
C 217.272181 74.75581 210.036985 63.927573 200.916585 54.807173 
C 191.796184 45.686772 180.967948 38.451576 169.05157 33.515651 
C 157.135192 28.579726 144.362417 26.039062 131.464222 26.039062 
C 118.566028 26.039062 105.793253 28.579726 93.876875 33.515651 
C 81.960497 38.451576 71.132261 45.686772 62.01186 54.807173 
C 52.89146 63.927573 45.656264 74.75581 40.720338 86.672187 
C 35.784413 98.588565 33.24375 111.361341 33.24375 124.259535 
C 33.24375 137.157729 35.784413 149.930505 40.720338 161.846882 
C 45.656264 173.76326 52.89146 184.591496 62.01186 193.711897 
C 71.132261 202.832298 81.960497 210.067494 93.876875 215.003419 
C 105.793253 219.939344 118.566028 222.480007 131.464222 222.480007 
C 144.362417 222.480007 157.135192 219.939344 169.05157 215.003419 
C 180.967948 210.067494 191.796184 202.832298 200.916585 193.711897 
C 210.036985 184.591496 217.272181 173.76326 222.208107 161.846882 
C 227.144032 149.930505 229.684695 137.157729 229.684695 124.259535 
M 131.464222 124.259535 
C 131.464222 124.259535 131.464222 124.259535 131.464222 124.259535 
C 131.464222 124.259535 131.464222 124.259535 131.464222 124.259535 
C 131.464222 124.259535 131.464222 124.259535 131.464222 124.259535 
C 131.464222 124.259535 131.464222 124.259535 131.464222 124.259535 
C 131.464222 124.259535 131.464222 124.259535 131.464222 124.259535 
C 131.464222 124.259535 131.464222 124.259535 131.464222 124.259535 
C 131.464222 124.259535 131.464222 124.259535 131.464222 124.259535 
C 131.464222 124.259535 131.464222 124.259535 131.464222 124.259535 
C 131.464222 124.259535 131.464222 124.259535 131.464222 124.259535 
C 131.464222 124.259535 131.464222 124.259535 131.464222 124.259535 
C 131.464222 124.259535 131.464222 124.259535 131.464222 124.259535 
C 131.464222 124.259535 131.464222 124.259535 131.464222 124.259535 
C 131.464222 124.259535 131.464222 124.259535 131.464222 124.259535 
C 131.464222 124.259535 131.464222 124.259535 131.464222 124.259535 
C 131.464222 124.259535 131.464222 124.259535 131.464222 124.259535 
C 131.464222 124.259535 131.464222 124.259535 131.464222 124.259535 
M 229.684695 124.259535 
z
"/>
  </clipPath>
 </defs>
</svg>
