<?xml version="1.0" standalone="no"?>
<!DOCTYPE svg PUBLIC "-//W3C//DTD SVG 1.1//EN" "http://www.w3.org/Graphics/SVG/1.1/DTD/svg11.dtd">
<svg width="51mm" height="28mm" viewBox="-19 -14 51 28" xmlns="http://www.w3.org/2000/svg" version="1.1">
<title>OpenSCAD Model</title>
<path d="
M 18.9659,13.4734 L 19.1484,13.4266 L 19.3235,13.3572 L 19.4886,13.2665 L 19.641,13.1558 L 19.7783,13.0268
 L 19.8984,12.8817 L 20.8123,11.4416 L 22.0822,8.74295 L 23.0038,5.90637 L 23.1777,4.99506 L 28.907,4.99506
 L 29.2184,4.9557 L 29.5225,4.87764 L 29.8144,4.76205 L 30.0896,4.61081 L 30.3436,4.42627 L 30.5724,4.21136
 L 30.7725,3.96945 L 30.9408,3.70438 L 31.0744,3.4203 L 31.1714,3.12172 L 31.2303,2.81332 L 31.25,2.5
 L 31.25,-2.5 L 31.2303,-2.81332 L 31.1714,-3.12172 L 31.0744,-3.4203 L 30.9408,-3.70438 L 30.7725,-3.96945
 L 30.5724,-4.21136 L 30.3436,-4.42627 L 30.0896,-4.61081 L 29.8144,-4.76205 L 29.5225,-4.87764 L 29.2184,-4.9557
 L 28.907,-4.99506 L 23.1777,-4.99506 L 23.0038,-5.90637 L 22.0822,-8.74295 L 20.8123,-11.4416 L 19.8984,-12.8817
 L 19.7783,-13.0268 L 19.641,-13.1558 L 19.4886,-13.2665 L 19.3235,-13.3572 L 19.1484,-13.4266 L 18.9659,-13.4734
 L 18.7791,-13.497 L -11.7359,-13.497 L -11.9228,-13.4734 L -12.1053,-13.4266 L -12.2804,-13.3572 L -12.4455,-13.2665
 L -12.5979,-13.1558 L -13.3037,-12.493 L -14.7645,-10.7271 L -15.9926,-8.79199 L -16.9684,-6.71826 L -17.6766,-4.53857
 L -18.1061,-2.28731 L -18.25,-0 L -18.1061,2.28731 L -17.6766,4.53857 L -16.9684,6.71826 L -15.9926,8.79199
 L -14.7645,10.7271 L -13.3037,12.493 L -12.5979,13.1558 L -12.4455,13.2665 L -12.2804,13.3572 L -12.1053,13.4266
 L -11.9228,13.4734 L -11.7359,13.497 L 18.7791,13.497 z
M -0.41127,6.53706 L -1.22734,6.43398 L -2.02405,6.22942 L -2.78885,5.92661 L -3.50966,5.53033 L -4.17513,5.04686
 L -4.77473,4.48378 L -5.29906,3.84999 L -5.73981,3.15547 L -6.09003,2.41121 L -6.34421,1.62891 L -6.49834,0.820923
 L -6.54999,-0 L -6.49834,-0.820923 L -6.34421,-1.62891 L -6.09003,-2.41121 L -5.73981,-3.15547 L -5.29906,-3.84999
 L -4.77473,-4.48378 L -4.17513,-5.04686 L -3.50966,-5.53033 L -2.78885,-5.92661 L -2.02405,-6.22942 L -1.22734,-6.43398
 L -0.41127,-6.53706 L 0.41127,-6.53706 L 1.22734,-6.43398 L 2.02405,-6.22942 L 2.78885,-5.92661 L 3.50966,-5.53033
 L 4.17513,-5.04686 L 4.77473,-4.48378 L 5.29906,-3.84999 L 5.73981,-3.15547 L 6.09003,-2.41121 L 6.34421,-1.62891
 L 6.49834,-0.820923 L 6.54999,-0 L 6.49834,0.820923 L 6.34421,1.62891 L 6.09003,2.41121 L 5.73981,3.15547
 L 5.29906,3.84999 L 4.77473,4.48378 L 4.17513,5.04686 L 3.50966,5.53033 L 2.78885,5.92661 L 2.02405,6.22942
 L 1.22734,6.43398 L 0.41127,6.53706 z
M 25.75,-0.183014 L 25.75,-2.72 L 26.095,-2.72 L 26.1849,-2.67906 L 26.2717,-2.63568 L 26.3553,-2.58984
 L 26.4359,-2.54156 L 26.5134,-2.49083 L 26.5877,-2.43764 L 26.659,-2.382 L 26.7278,-2.32446 L 26.7947,-2.26608
 L 26.8597,-2.20691 L 26.9228,-2.14691 L 26.9841,-2.08609 L 27.0435,-2.02446 L 27.101,-1.96201 L 27.157,-1.89897
 L 27.2118,-1.83614 L 27.2654,-1.7735 L 27.3178,-1.71107 L 27.369,-1.64885 L 27.4191,-1.58682 L 27.468,-1.52501
 L 27.5165,-1.46416 L 27.565,-1.40501 L 27.6135,-1.34758 L 27.662,-1.29187 L 27.7103,-1.23787 L 27.7587,-1.18558
 L 27.807,-1.13501 L 27.8559,-1.08665 L 27.9054,-1.04105 L 27.9555,-0.998169 L 28.0062,-0.958023 L 28.0575,-0.920624
 L 28.1094,-0.885941 L 28.162,-0.854004 L 28.2161,-0.825348 L 28.2723,-0.801117 L 28.3304,-0.781281 L 28.3906,-0.765839
 L 28.4527,-0.754822 L 28.5168,-0.748215 L 28.583,-0.746002 L 28.6709,-0.749786 L 28.753,-0.761108 L 28.8293,-0.779984
 L 28.8997,-0.806412 L 28.9643,-0.840393 L 29.0231,-0.881927 L 29.076,-0.931015 L 29.1227,-0.986801 L 29.1622,-1.04848
 L 29.1945,-1.11603 L 29.2197,-1.18945 L 29.2376,-1.26877 L 29.2484,-1.35394 L 29.252,-1.44501 L 29.2485,-1.5322
 L 29.2381,-1.61488 L 29.2208,-1.69308 L 29.1965,-1.7668 L 29.1653,-1.83603 L 29.1271,-1.90076 L 29.082,-1.96101
 L 29.0306,-2.01532 L 28.9736,-2.06281 L 28.9109,-2.10347 L 28.8427,-2.13733 L 28.7687,-2.16437 L 28.6892,-2.1846
 L 28.604,-2.19801 L 28.65,-2.69801 L 28.7776,-2.67682 L 28.8975,-2.64413 L 29.0098,-2.59993 L 29.1143,-2.5442
 L 29.2112,-2.47699 L 29.3004,-2.39825 L 29.382,-2.30801 L 29.4542,-2.20811 L 29.5152,-2.10042 L 29.5652,-1.98492
 L 29.604,-1.86163 L 29.6318,-1.73056 L 29.6484,-1.59167 L 29.654,-1.44501 L 29.6484,-1.28505 L 29.6315,-1.13603
 L 29.6035,-0.99794 L 29.5642,-0.870804 L 29.5137,-0.754593 L 29.452,-0.649338 L 29.379,-0.555008 L 29.296,-0.472229
 L 29.2036,-0.402191 L 29.1017,-0.344879 L 28.9904,-0.300308 L 28.8697,-0.268478 L 28.7396,-0.249374 L 28.6,-0.243011
 L 28.536,-0.245087 L 28.4722,-0.251328 L 28.4084,-0.261749 L 28.3447,-0.276306 L 28.281,-0.295044 L 28.2175,-0.317947
 L 28.154,-0.345001 L 28.0909,-0.376175 L 28.0277,-0.411377 L 27.9646,-0.450623 L 27.9014,-0.493912 L 27.8383,-0.541229
 L 27.7751,-0.592606 L 27.712,-0.64801 L 27.6439,-0.712952 L 27.5658,-0.792908 L 27.4778,-0.887878 L 27.3797,-0.997879
 L 27.2718,-1.12291 L 27.1539,-1.26294 L 27.026,-1.41801 L 26.9538,-1.50482 L 26.8837,-1.58641 L 26.8156,-1.66278
 L 26.7494,-1.73393 L 26.6853,-1.79985 L 26.6231,-1.86053 L 26.563,-1.916 L 26.5044,-1.96649 L 26.4465,-2.01282
 L 26.3892,-2.05499 L 26.3325,-2.09299 L 26.2764,-2.12683 L 26.2209,-2.15649 L 26.166,-2.18201 L 26.166,-0.183014
 z
M 25.75,2.83456 L 25.75,0.297577 L 26.095,0.297577 L 26.1849,0.338516 L 26.2717,0.381897 L 26.3553,0.427734
 L 26.4359,0.476013 L 26.5134,0.526749 L 26.5877,0.579941 L 26.659,0.635574 L 26.7278,0.693115 L 26.7947,0.751495
 L 26.8597,0.810669 L 26.9228,0.870667 L 26.9841,0.931488 L 27.0435,0.993118 L 27.101,1.05557 L 27.157,1.11861
 L 27.2118,1.18144 L 27.2654,1.24408 L 27.3178,1.3065 L 27.369,1.36873 L 27.4191,1.43076 L 27.468,1.49257
 L 27.5165,1.55342 L 27.565,1.61256 L 27.6135,1.67 L 27.662,1.72571 L 27.7103,1.77971 L 27.7587,1.832
 L 27.807,1.88257 L 27.8559,1.93092 L 27.9054,1.97653 L 27.9555,2.01941 L 28.0062,2.05956 L 28.0575,2.09695
 L 28.1094,2.13164 L 28.162,2.16357 L 28.2161,2.19223 L 28.2723,2.21646 L 28.3304,2.2363 L 28.3906,2.25174
 L 28.4527,2.26276 L 28.5168,2.26936 L 28.583,2.27158 L 28.6709,2.26779 L 28.753,2.25647 L 28.8293,2.23759
 L 28.8997,2.21117 L 28.9643,2.17719 L 29.0231,2.13565 L 29.076,2.08656 L 29.1227,2.03078 L 29.1622,1.9691
 L 29.1945,1.90155 L 29.2197,1.82812 L 29.2376,1.74881 L 29.2484,1.66364 L 29.252,1.57257 L 29.2485,1.48538
 L 29.2381,1.40269 L 29.2208,1.32449 L 29.1965,1.25078 L 29.1653,1.18155 L 29.1271,1.11682 L 29.082,1.05656
 L 29.0306,1.00226 L 28.9736,0.954773 L 28.9109,0.914108 L 28.8427,0.880249 L 28.7687,0.85321 L 28.6892,0.832977
 L 28.604,0.819565 L 28.65,0.319565 L 28.7776,0.340759 L 28.8975,0.373444 L 29.0098,0.417648 L 29.1143,0.473373
 L 29.2112,0.540588 L 29.3004,0.619324 L 29.382,0.709564 L 29.4542,0.809464 L 29.5152,0.91716 L 29.5652,1.03265
 L 29.604,1.15594 L 29.6318,1.28702 L 29.6484,1.4259 L 29.654,1.57257 L 29.6484,1.73253 L 29.6315,1.88155
 L 29.6035,2.01964 L 29.5642,2.14677 L 29.5137,2.26299 L 29.452,2.36824 L 29.379,2.46257 L 29.296,2.54535
 L 29.2036,2.61539 L 29.1017,2.6727 L 28.9904,2.71727 L 28.8697,2.7491 L 28.7396,2.7682 L 28.6,2.77457
 L 28.536,2.77249 L 28.4722,2.76625 L 28.4084,2.75583 L 28.3447,2.74127 L 28.281,2.72253 L 28.2175,2.69963
 L 28.154,2.67258 L 28.0909,2.6414 L 28.0277,2.6062 L 27.9646,2.56696 L 27.9014,2.52367 L 27.8383,2.47635
 L 27.7751,2.42497 L 27.712,2.36957 L 27.6439,2.30463 L 27.5658,2.22467 L 27.4778,2.1297 L 27.3797,2.0197
 L 27.2718,1.89467 L 27.1539,1.75464 L 27.026,1.59956 L 26.9538,1.51276 L 26.8837,1.43117 L 26.8156,1.3548
 L 26.7494,1.28365 L 26.6853,1.21773 L 26.6231,1.15704 L 26.563,1.10158 L 26.5044,1.05109 L 26.4465,1.00476
 L 26.3892,0.962585 L 26.3325,0.924591 L 26.2764,0.890747 L 26.2209,0.861084 L 26.166,0.835571 L 26.166,2.83456
 z
" stroke="black" fill="lightgray" stroke-width="0.5"/>
</svg>
