<?xml version="1.0" standalone="no"?>
<!DOCTYPE svg PUBLIC "-//W3C//DTD SVG 1.1//EN" "http://www.w3.org/Graphics/SVG/1.1/DTD/svg11.dtd">
<svg width="51mm" height="28mm" viewBox="-19 -14 51 28" xmlns="http://www.w3.org/2000/svg" version="1.1">
<title>OpenSCAD Model</title>
<path d="
M 18.9873,13.7323 L 19.1089,13.701 L 19.2257,13.6548 L 19.3357,13.5943 L 19.4373,13.5205 L 19.5289,13.4345
 L 19.6089,13.3378 L 20.8123,11.4416 L 22.0822,8.74295 L 23.0038,5.90637 L 23.1777,4.99506 L 28.907,4.99506
 L 29.2184,4.9557 L 29.5225,4.87764 L 29.8144,4.76205 L 30.0896,4.61081 L 30.3436,4.42627 L 30.5724,4.21136
 L 30.7725,3.96945 L 30.9408,3.70438 L 31.0744,3.4203 L 31.1714,3.12172 L 31.2303,2.81332 L 31.25,2.5
 L 31.25,-2.5 L 31.2303,-2.81332 L 31.1714,-3.12172 L 31.0744,-3.4203 L 30.9408,-3.70438 L 30.7725,-3.96945
 L 30.5724,-4.21136 L 30.3436,-4.42627 L 30.0896,-4.61081 L 29.8144,-4.76205 L 29.5225,-4.87764 L 29.2184,-4.9557
 L 28.907,-4.99506 L 23.1777,-4.99506 L 23.0038,-5.90637 L 22.0822,-8.74295 L 20.8123,-11.4416 L 19.6089,-13.3378
 L 19.5289,-13.4345 L 19.4373,-13.5205 L 19.3357,-13.5943 L 19.2257,-13.6548 L 19.1089,-13.701 L 18.9873,-13.7323
 L 18.8627,-13.748 L -11.6348,-13.748 L -11.7594,-13.7323 L -11.881,-13.701 L -11.9978,-13.6548 L -12.1078,-13.5943
 L -12.2095,-13.5205 L -13.3037,-12.493 L -14.7645,-10.7271 L -15.9926,-8.79199 L -16.9684,-6.71826 L -17.6766,-4.53857
 L -18.1061,-2.28731 L -18.25,-0 L -18.1061,2.28731 L -17.6766,4.53857 L -16.9684,6.71826 L -15.9926,8.79199
 L -14.7645,10.7271 L -13.3037,12.493 L -12.2095,13.5205 L -12.1078,13.5943 L -11.9978,13.6548 L -11.881,13.701
 L -11.7594,13.7323 L -11.6348,13.748 L 18.8627,13.748 z
M -0.583939,9.28165 L -1.74265,9.13527 L -2.87386,8.84482 L -3.95975,8.41489 L -4.98318,7.85225 L -5.92804,7.16577
 L -6.7794,6.36629 L -7.52385,5.4664 L -8.14964,4.4803 L -8.64691,3.42355 L -9.00781,2.31281 L -9.22665,1.16559
 L -9.29999,-0 L -9.22665,-1.16559 L -9.00781,-2.31281 L -8.64691,-3.42355 L -8.14964,-4.4803 L -7.52385,-5.4664
 L -6.7794,-6.36629 L -5.92804,-7.16577 L -4.98318,-7.85225 L -3.95975,-8.41489 L -2.87386,-8.84482 L -1.74265,-9.13527
 L -0.583939,-9.28165 L 0.583939,-9.28165 L 1.74265,-9.13527 L 2.87386,-8.84482 L 3.95975,-8.41489 L 4.98318,-7.85225
 L 5.92804,-7.16577 L 6.7794,-6.36629 L 7.52385,-5.4664 L 8.14964,-4.4803 L 8.64691,-3.42355 L 9.00781,-2.31281
 L 9.22665,-1.16559 L 9.29999,-0 L 9.22665,1.16559 L 9.00781,2.31281 L 8.64691,3.42355 L 8.14964,4.4803
 L 7.52385,5.4664 L 6.7794,6.36629 L 5.92804,7.16577 L 4.98318,7.85225 L 3.95975,8.41489 L 2.87386,8.84482
 L 1.74265,9.13527 L 0.583939,9.28165 z
M 25.75,-0.175003 L 25.75,-2.576 L 26.166,-2.576 L 26.166,-1.60001 L 29.122,-1.60001 L 28.502,-2.464
 L 28.964,-2.464 L 29.59,-1.55901 L 29.59,-1.108 L 26.166,-1.108 L 26.166,-0.175003 z
M 26.8389,2.86285 L 26.6793,2.84271 L 26.5303,2.80914 L 26.3918,2.76215 L 26.264,2.70171 L 26.1467,2.62785
 L 26.04,2.54057 L 25.9461,2.44147 L 25.8666,2.33217 L 25.8016,2.21265 L 25.751,2.08293 L 25.7149,1.94302
 L 25.6932,1.79289 L 25.686,1.63257 L 25.6959,1.45392 L 25.7255,1.28767 L 25.7749,1.13383 L 25.844,0.992401
 L 25.9329,0.863388 L 26.0416,0.74678 L 26.17,0.642578 L 26.3176,0.551834 L 26.483,0.475067 L 26.6665,0.412247
 L 26.868,0.363388 L 27.0873,0.328491 L 27.3247,0.307556 L 27.58,0.300568 L 27.8565,0.307831 L 28.114,0.329636
 L 28.3526,0.365952 L 28.5722,0.416809 L 28.7728,0.482208 L 28.9544,0.562119 L 29.117,0.65657 L 29.2595,0.76445
 L 29.38,0.884659 L 29.4787,1.01718 L 29.5554,1.16203 L 29.6102,1.31923 L 29.643,1.48874 L 29.654,1.67058
 L 29.638,1.9052 L 29.5902,2.11368 L 29.5105,2.29597 L 29.399,2.45212 L 29.2555,2.58211 L 29.0802,2.68591
 L 28.873,2.76357 L 28.789,2.29558 L 28.9132,2.24742 L 29.0182,2.18529 L 29.1042,2.10915 L 29.171,2.019
 L 29.2188,1.91486 L 29.2474,1.79671 L 29.257,1.66457 L 29.249,1.54871 L 29.2252,1.44057 L 29.1854,1.34015
 L 29.1296,1.24742 L 29.058,1.16243 L 28.9705,1.08514 L 28.867,1.01556 L 28.7487,0.954819 L 28.6162,0.903412
 L 28.4695,0.861343 L 28.3085,0.828629 L 28.1332,0.805267 L 27.9437,0.791245 L 27.74,0.786575 L 27.8084,0.826797
 L 27.872,0.871475 L 27.9307,0.920593 L 27.9846,0.974167 L 28.0336,1.03218 L 28.0777,1.09465 L 28.117,1.16158
 L 28.1512,1.23216 L 28.1802,1.30565 L 28.2039,1.38203 L 28.2223,1.46132 L 28.2355,1.5435 L 28.2434,1.62859
 L 28.246,1.71657 L 28.2391,1.86353 L 28.2186,2.00156 L 28.1843,2.13063 L 28.1363,2.25078 L 28.0746,2.36198
 L 27.9991,2.46425 L 27.91,2.55757 L 27.8096,2.64035 L 27.6997,2.71039 L 27.5804,2.7677 L 27.4517,2.81227
 L 27.3136,2.8441 L 27.166,2.8632 L 27.009,2.86957 z
M 27.1029,2.3674 L 27.2119,2.35492 L 27.3129,2.33411 L 27.4061,2.30496 L 27.4913,2.26749 L 27.5686,2.22169
 L 27.638,2.16757 L 27.699,2.10602 L 27.7506,2.03793 L 27.7929,1.96333 L 27.8257,1.88219 L 27.8492,1.79451
 L 27.8633,1.7003 L 27.868,1.59956 L 27.8638,1.50426 L 27.8514,1.41435 L 27.8307,1.32982 L 27.8017,1.25067
 L 27.7644,1.17691 L 27.7189,1.10855 L 27.665,1.04558 L 27.6039,0.989853 L 27.5364,0.942719 L 27.4627,0.904144
 L 27.3827,0.874146 L 27.2964,0.852707 L 27.2038,0.839859 L 27.105,0.835571 L 26.9797,0.840042 L 26.8611,0.853455
 L 26.749,0.875793 L 26.6436,0.907074 L 26.5448,0.947311 L 26.4526,0.996475 L 26.367,1.05457 L 26.2908,1.11966
 L 26.2264,1.18976 L 26.1737,1.26488 L 26.1327,1.34502 L 26.1034,1.43018 L 26.0858,1.52037 L 26.08,1.61557
 L 26.0849,1.71359 L 26.0997,1.80536 L 26.1244,1.8909 L 26.159,1.97018 L 26.2035,2.04323 L 26.2578,2.11002
 L 26.322,2.17058 L 26.3948,2.22389 L 26.475,2.26901 L 26.5625,2.30594 L 26.6573,2.33466 L 26.7595,2.35516
 L 26.8691,2.36746 L 26.986,2.37157 z
" stroke="black" fill="lightgray" stroke-width="0.5"/>
</svg>
