solid OpenSCAD_Model
  facet normal 1 -0 0
    outer loop
      vertex 60 -77.5 0
      vertex 60 77.5 -6
      vertex 60 77.5 0
    endloop
  endfacet
  facet normal 1 0 0
    outer loop
      vertex 60 77.5 -6
      vertex 60 -77.5 0
      vertex 60 -77.5 -6
    endloop
  endfacet
  facet normal -0 0 1
    outer loop
      vertex 57.5 77.5 0
      vertex 60 -77.5 0
      vertex 60 77.5 0
    endloop
  endfacet
  facet normal 0 0 1
    outer loop
      vertex 60 -77.5 0
      vertex 57.5 77.5 0
      vertex 57.5 -77.5 0
    endloop
  endfacet
  facet normal -0 0 1
    outer loop
      vertex -60 77.5 0
      vertex -57.5 -77.5 0
      vertex -57.5 77.5 0
    endloop
  endfacet
  facet normal 0 0 1
    outer loop
      vertex -57.5 -77.5 0
      vertex -60 77.5 0
      vertex -60 -77.5 0
    endloop
  endfacet
  facet normal 0 0 -1
    outer loop
      vertex 60 -77.5 -6
      vertex 58 61.5 -6
      vertex 60 77.5 -6
    endloop
  endfacet
  facet normal 0 0 -1
    outer loop
      vertex 60 -77.5 -6
      vertex 32.5 -65.5 -6
      vertex 58 61.5 -6
    endloop
  endfacet
  facet normal 0 0 -1
    outer loop
      vertex 60 -77.5 -6
      vertex -32.5 -65.5 -6
      vertex 32.5 -65.5 -6
    endloop
  endfacet
  facet normal 0 0 -1
    outer loop
      vertex -32.5 -65.5 -6
      vertex -58 61.5 -6
      vertex -32.5 59.5 -6
    endloop
  endfacet
  facet normal 0 0 -1
    outer loop
      vertex -60 77.5 -6
      vertex -58 61.5 -6
      vertex -60 -77.5 -6
    endloop
  endfacet
  facet normal -0 0 -1
    outer loop
      vertex -32.5 -65.5 -6
      vertex -60 -77.5 -6
      vertex -58 61.5 -6
    endloop
  endfacet
  facet normal 0 0 -1
    outer loop
      vertex -60 -77.5 -6
      vertex -32.5 -65.5 -6
      vertex 60 -77.5 -6
    endloop
  endfacet
  facet normal 0 0 -1
    outer loop
      vertex 58 63.5 -6
      vertex 60 77.5 -6
      vertex 58 61.5 -6
    endloop
  endfacet
  facet normal 0 0 -1
    outer loop
      vertex -58 63.5 -6
      vertex 60 77.5 -6
      vertex 58 63.5 -6
    endloop
  endfacet
  facet normal 0 0 -1
    outer loop
      vertex -58 63.5 -6
      vertex -60 77.5 -6
      vertex 60 77.5 -6
    endloop
  endfacet
  facet normal 0 0 -1
    outer loop
      vertex -58 61.5 -6
      vertex -60 77.5 -6
      vertex -58 63.5 -6
    endloop
  endfacet
  facet normal 0 0 -1
    outer loop
      vertex 32.5 59.5 -6
      vertex 58 61.5 -6
      vertex 32.5 -65.5 -6
    endloop
  endfacet
  facet normal 0 0 -1
    outer loop
      vertex -32.5 59.5 -6
      vertex 58 61.5 -6
      vertex 32.5 59.5 -6
    endloop
  endfacet
  facet normal -0 0 -1
    outer loop
      vertex 58 61.5 -6
      vertex -32.5 59.5 -6
      vertex -58 61.5 -6
    endloop
  endfacet
  facet normal -1 0 0
    outer loop
      vertex -60 -77.5 -6
      vertex -60 77.5 0
      vertex -60 77.5 -6
    endloop
  endfacet
  facet normal -1 -0 0
    outer loop
      vertex -60 77.5 0
      vertex -60 -77.5 -6
      vertex -60 -77.5 0
    endloop
  endfacet
  facet normal 0 1 -0
    outer loop
      vertex 60 77.5 -6
      vertex 57.5 77.5 0
      vertex 60 77.5 0
    endloop
  endfacet
  facet normal 0 1 0
    outer loop
      vertex 53.5 77.5 -0.200001
      vertex 53 77.5 -4
      vertex 53 77.5 -0.200001
    endloop
  endfacet
  facet normal 0 1 0
    outer loop
      vertex 57.5 77.5 0
      vertex 53 77.5 -4
      vertex 53.5 77.5 -0.200001
    endloop
  endfacet
  facet normal 0 1 0
    outer loop
      vertex 53 77.5 -4
      vertex 51.5 77.5 -5.64214
      vertex 51.5 77.5 -4
    endloop
  endfacet
  facet normal 0 1 0
    outer loop
      vertex 57.5 77.5 0
      vertex 60 77.5 -6
      vertex 53 77.5 -4
    endloop
  endfacet
  facet normal 0 1 0
    outer loop
      vertex 51.5 77.5 -5.64214
      vertex 60 77.5 -6
      vertex -51.5 77.5 -5.64214
    endloop
  endfacet
  facet normal 0 1 0
    outer loop
      vertex 53 77.5 -4
      vertex 60 77.5 -6
      vertex 51.5 77.5 -5.64214
    endloop
  endfacet
  facet normal 0 1 -0
    outer loop
      vertex 57.5 77.5 0
      vertex 53.5 77.5 2
      vertex 57.5 77.5 2
    endloop
  endfacet
  facet normal 0 1 0
    outer loop
      vertex 53.5 77.5 2
      vertex 57.5 77.5 0
      vertex 53.5 77.5 -0.200001
    endloop
  endfacet
  facet normal 0 1 0
    outer loop
      vertex -51.5 77.5 -4
      vertex -51.5 77.5 -5.64214
      vertex -53 77.5 -4
    endloop
  endfacet
  facet normal 0 1 0
    outer loop
      vertex -53 77.5 -0.200001
      vertex -53 77.5 -4
      vertex -53.5 77.5 -0.200001
    endloop
  endfacet
  facet normal 0 1 0
    outer loop
      vertex -53.5 77.5 2
      vertex -57.5 77.5 0
      vertex -57.5 77.5 2
    endloop
  endfacet
  facet normal 0 1 -0
    outer loop
      vertex -53.5 77.5 -0.200001
      vertex -57.5 77.5 0
      vertex -53.5 77.5 2
    endloop
  endfacet
  facet normal 0 1 0
    outer loop
      vertex -53 77.5 -4
      vertex -57.5 77.5 0
      vertex -53.5 77.5 -0.200001
    endloop
  endfacet
  facet normal 0 1 0
    outer loop
      vertex -60 77.5 -6
      vertex -57.5 77.5 0
      vertex -53 77.5 -4
    endloop
  endfacet
  facet normal 0 1 0
    outer loop
      vertex -60 77.5 -6
      vertex -53 77.5 -4
      vertex -51.5 77.5 -5.64214
    endloop
  endfacet
  facet normal 0 1 0
    outer loop
      vertex -57.5 77.5 0
      vertex -60 77.5 -6
      vertex -60 77.5 0
    endloop
  endfacet
  facet normal 0 1 0
    outer loop
      vertex -60 77.5 -6
      vertex -51.5 77.5 -5.64214
      vertex 60 77.5 -6
    endloop
  endfacet
  facet normal 0 -1 0
    outer loop
      vertex -60 -77.5 -6
      vertex -57.5 -77.5 0
      vertex -60 -77.5 0
    endloop
  endfacet
  facet normal 0 -1 -0
    outer loop
      vertex -57.5 -77.5 0
      vertex -60 -77.5 -6
      vertex 57.5 -77.5 0
    endloop
  endfacet
  facet normal 0 -1 0
    outer loop
      vertex 60 -77.5 -6
      vertex 57.5 -77.5 0
      vertex -60 -77.5 -6
    endloop
  endfacet
  facet normal 0 -1 0
    outer loop
      vertex 57.5 -77.5 0
      vertex 60 -77.5 -6
      vertex 60 -77.5 0
    endloop
  endfacet
  facet normal 0 -1 0
    outer loop
      vertex -57.5 -77.5 0
      vertex 57.5 -77.5 2
      vertex -57.5 -77.5 2
    endloop
  endfacet
  facet normal 0 -1 -0
    outer loop
      vertex 57.5 -77.5 2
      vertex -57.5 -77.5 0
      vertex 57.5 -77.5 0
    endloop
  endfacet
  facet normal 1 -0 0
    outer loop
      vertex 58 61.5 -6
      vertex 58 63.5 -7.35
      vertex 58 63.5 -6
    endloop
  endfacet
  facet normal 1 0 0
    outer loop
      vertex 58 63.5 -7.35
      vertex 58 61.5 -6
      vertex 58 61.5 -7.35
    endloop
  endfacet
  facet normal 0 0 -1
    outer loop
      vertex -58 61.5 -7.35
      vertex 58 63.5 -7.35
      vertex 58 61.5 -7.35
    endloop
  endfacet
  facet normal -0 0 -1
    outer loop
      vertex 58 63.5 -7.35
      vertex -58 61.5 -7.35
      vertex -58 63.5 -7.35
    endloop
  endfacet
  facet normal -1 0 0
    outer loop
      vertex -58 61.5 -7.35
      vertex -58 63.5 -6
      vertex -58 63.5 -7.35
    endloop
  endfacet
  facet normal -1 -0 0
    outer loop
      vertex -58 63.5 -6
      vertex -58 61.5 -7.35
      vertex -58 61.5 -6
    endloop
  endfacet
  facet normal 0 1 -0
    outer loop
      vertex 58 63.5 -7.35
      vertex -58 63.5 -6
      vertex 58 63.5 -6
    endloop
  endfacet
  facet normal 0 1 0
    outer loop
      vertex -58 63.5 -6
      vertex 58 63.5 -7.35
      vertex -58 63.5 -7.35
    endloop
  endfacet
  facet normal 0 -1 0
    outer loop
      vertex -58 61.5 -7.35
      vertex 58 61.5 -6
      vertex -58 61.5 -6
    endloop
  endfacet
  facet normal 0 -1 -0
    outer loop
      vertex 58 61.5 -6
      vertex -58 61.5 -7.35
      vertex 58 61.5 -7.35
    endloop
  endfacet
  facet normal -1 0 0
    outer loop
      vertex 32.5 -65.5 -6
      vertex 32.5 59.5 -4
      vertex 32.5 59.5 -6
    endloop
  endfacet
  facet normal -1 -0 0
    outer loop
      vertex 32.5 59.5 -4
      vertex 32.5 -65.5 -6
      vertex 32.5 -65.5 -4
    endloop
  endfacet
  facet normal 1 -0 0
    outer loop
      vertex -32.5 -65.5 -4
      vertex -32.5 59.5 -6
      vertex -32.5 59.5 -4
    endloop
  endfacet
  facet normal 1 0 0
    outer loop
      vertex -32.5 59.5 -6
      vertex -32.5 -65.5 -4
      vertex -32.5 -65.5 -6
    endloop
  endfacet
  facet normal 0 -1 0
    outer loop
      vertex -32.5 59.5 -6
      vertex 32.5 59.5 -4
      vertex -32.5 59.5 -4
    endloop
  endfacet
  facet normal 0 -1 -0
    outer loop
      vertex 32.5 59.5 -4
      vertex -32.5 59.5 -6
      vertex 32.5 59.5 -6
    endloop
  endfacet
  facet normal 0 1 -0
    outer loop
      vertex 32.5 -65.5 -6
      vertex -32.5 -65.5 -4
      vertex 32.5 -65.5 -4
    endloop
  endfacet
  facet normal 0 1 0
    outer loop
      vertex -32.5 -65.5 -4
      vertex 32.5 -65.5 -6
      vertex -32.5 -65.5 -6
    endloop
  endfacet
  facet normal 1 -0 0
    outer loop
      vertex 57.5 -77.5 2
      vertex 57.5 77.5 0
      vertex 57.5 77.5 2
    endloop
  endfacet
  facet normal 1 0 0
    outer loop
      vertex 57.5 77.5 0
      vertex 57.5 -77.5 2
      vertex 57.5 -77.5 0
    endloop
  endfacet
  facet normal 0 0 1
    outer loop
      vertex -53.5 77.5 2
      vertex -57.5 77.5 2
      vertex -53.5 -76 2
    endloop
  endfacet
  facet normal 0 0 1
    outer loop
      vertex 53.5 -76 2
      vertex 57.5 77.5 2
      vertex 53.5 77.5 2
    endloop
  endfacet
  facet normal 0 0 1
    outer loop
      vertex 57.5 77.5 2
      vertex 53.5 -76 2
      vertex 57.5 -77.5 2
    endloop
  endfacet
  facet normal -0 0 1
    outer loop
      vertex -53.5 -76 2
      vertex 57.5 -77.5 2
      vertex 53.5 -76 2
    endloop
  endfacet
  facet normal 0 0 1
    outer loop
      vertex -53.5 -76 2
      vertex -57.5 -77.5 2
      vertex 57.5 -77.5 2
    endloop
  endfacet
  facet normal 0 0 1
    outer loop
      vertex -57.5 -77.5 2
      vertex -53.5 -76 2
      vertex -57.5 77.5 2
    endloop
  endfacet
  facet normal -1 0 0
    outer loop
      vertex -57.5 -77.5 0
      vertex -57.5 77.5 2
      vertex -57.5 77.5 0
    endloop
  endfacet
  facet normal -1 -0 0
    outer loop
      vertex -57.5 77.5 2
      vertex -57.5 -77.5 0
      vertex -57.5 -77.5 2
    endloop
  endfacet
  facet normal -1 0 0
    outer loop
      vertex 53.5 -76 -0.200001
      vertex 53.5 77.5 2
      vertex 53.5 77.5 -0.200001
    endloop
  endfacet
  facet normal -1 -0 0
    outer loop
      vertex 53.5 77.5 2
      vertex 53.5 -76 -0.200001
      vertex 53.5 -76 2
    endloop
  endfacet
  facet normal -0 0 1
    outer loop
      vertex -53.5 77.5 -0.200001
      vertex -49 73.5 -0.200001
      vertex -53 77.5 -0.200001
    endloop
  endfacet
  facet normal 0 0 1
    outer loop
      vertex -49 73.5 -0.200001
      vertex -53.5 77.5 -0.200001
      vertex -53.5 -76 -0.200001
    endloop
  endfacet
  facet normal 0 0 1
    outer loop
      vertex -49 73.5 -0.200001
      vertex -53.5 -76 -0.200001
      vertex -49 -76 -0.200001
    endloop
  endfacet
  facet normal 0 0 1
    outer loop
      vertex 49 73.5 -0.200001
      vertex 53.5 77.5 -0.200001
      vertex 53 77.5 -0.200001
    endloop
  endfacet
  facet normal 0 0 1
    outer loop
      vertex 53.5 77.5 -0.200001
      vertex 49 73.5 -0.200001
      vertex 53.5 -76 -0.200001
    endloop
  endfacet
  facet normal 0 0 1
    outer loop
      vertex 53.5 -76 -0.200001
      vertex 49 73.5 -0.200001
      vertex 49 -76 -0.200001
    endloop
  endfacet
  facet normal 1 -0 0
    outer loop
      vertex -53.5 -76 2
      vertex -53.5 77.5 -0.200001
      vertex -53.5 77.5 2
    endloop
  endfacet
  facet normal 1 0 0
    outer loop
      vertex -53.5 77.5 -0.200001
      vertex -53.5 -76 2
      vertex -53.5 -76 -0.200001
    endloop
  endfacet
  facet normal 0 1 -0
    outer loop
      vertex 51.5 -76 -4
      vertex 49 -76 -1.8
      vertex 51.5 -76 -1.8
    endloop
  endfacet
  facet normal 0 1 0
    outer loop
      vertex 49 -76 -1.8
      vertex 51.5 -76 -4
      vertex -49 -76 -1.8
    endloop
  endfacet
  facet normal 0 1 0
    outer loop
      vertex -51.5 -76 -4
      vertex -49 -76 -1.8
      vertex 51.5 -76 -4
    endloop
  endfacet
  facet normal 0 1 0
    outer loop
      vertex -49 -76 -1.8
      vertex -51.5 -76 -4
      vertex -51.5 -76 -1.8
    endloop
  endfacet
  facet normal 0 1 -0
    outer loop
      vertex 49 -76 -1.8
      vertex -49 -76 -0.200001
      vertex 49 -76 -0.200001
    endloop
  endfacet
  facet normal 0 1 0
    outer loop
      vertex -49 -76 -0.200001
      vertex 49 -76 -1.8
      vertex -49 -76 -1.8
    endloop
  endfacet
  facet normal 0 1 0
    outer loop
      vertex 49 -76 -0.200001
      vertex 53.5 -76 2
      vertex 53.5 -76 -0.200001
    endloop
  endfacet
  facet normal 0 1 0
    outer loop
      vertex 53.5 -76 2
      vertex 49 -76 -0.200001
      vertex -53.5 -76 2
    endloop
  endfacet
  facet normal 0 1 -0
    outer loop
      vertex -49 -76 -0.200001
      vertex -53.5 -76 2
      vertex 49 -76 -0.200001
    endloop
  endfacet
  facet normal 0 1 0
    outer loop
      vertex -53.5 -76 2
      vertex -49 -76 -0.200001
      vertex -53.5 -76 -0.200001
    endloop
  endfacet
  facet normal -1 0 0
    outer loop
      vertex 49 -76 -1.8
      vertex 49 73.5 -0.200001
      vertex 49 73.5 -1.8
    endloop
  endfacet
  facet normal -1 -0 0
    outer loop
      vertex 49 73.5 -0.200001
      vertex 49 -76 -1.8
      vertex 49 -76 -0.200001
    endloop
  endfacet
  facet normal 0 0 -1
    outer loop
      vertex -51.5 -76 -1.8
      vertex -49 73.5 -1.8
      vertex -49 -76 -1.8
    endloop
  endfacet
  facet normal -0 0 -1
    outer loop
      vertex -49 73.5 -1.8
      vertex -51.5 -76 -1.8
      vertex -51.5 76 -1.8
    endloop
  endfacet
  facet normal 0 0 -1
    outer loop
      vertex 49 73.5 -1.8
      vertex 51.5 -76 -1.8
      vertex 49 -76 -1.8
    endloop
  endfacet
  facet normal 0 0 -1
    outer loop
      vertex 51.5 -76 -1.8
      vertex 49 73.5 -1.8
      vertex 51.5 76 -1.8
    endloop
  endfacet
  facet normal 1 -0 0
    outer loop
      vertex -49 -76 -0.200001
      vertex -49 73.5 -1.8
      vertex -49 73.5 -0.200001
    endloop
  endfacet
  facet normal 1 0 0
    outer loop
      vertex -49 73.5 -1.8
      vertex -49 -76 -0.200001
      vertex -49 -76 -1.8
    endloop
  endfacet
  facet normal -1 0 0
    outer loop
      vertex 51.5 77.5 -5.64214
      vertex 51.5 76 -4
      vertex 51.5 77.5 -4
    endloop
  endfacet
  facet normal -1 0 0
    outer loop
      vertex 51.5 75.8579 -4
      vertex 51.5 76 -4
      vertex 51.5 77.5 -5.64214
    endloop
  endfacet
  facet normal -1 0 0
    outer loop
      vertex 51.5 75.8579 -4
      vertex 51.5 76 -1.8
      vertex 51.5 76 -4
    endloop
  endfacet
  facet normal -1 0 0
    outer loop
      vertex 51.5 -76 -1.8
      vertex 51.5 75.8579 -4
      vertex 51.5 -76 -4
    endloop
  endfacet
  facet normal -1 0 0
    outer loop
      vertex 51.5 75.8579 -4
      vertex 51.5 -76 -1.8
      vertex 51.5 76 -1.8
    endloop
  endfacet
  facet normal 0 0 1
    outer loop
      vertex 51.5 75.8579 -4
      vertex 32.5 59.5 -4
      vertex 51.5 -76 -4
    endloop
  endfacet
  facet normal 0 0 1
    outer loop
      vertex 51.5 75.8579 -4
      vertex -32.5 59.5 -4
      vertex 32.5 59.5 -4
    endloop
  endfacet
  facet normal 0 0 1
    outer loop
      vertex -51.5 -76 -4
      vertex -32.5 59.5 -4
      vertex -51.5 75.8579 -4
    endloop
  endfacet
  facet normal -0 0 1
    outer loop
      vertex -51.5 75.8579 -4
      vertex -32.5 59.5 -4
      vertex 51.5 75.8579 -4
    endloop
  endfacet
  facet normal -0 0 1
    outer loop
      vertex 32.5 -65.5 -4
      vertex 51.5 -76 -4
      vertex 32.5 59.5 -4
    endloop
  endfacet
  facet normal -0 0 1
    outer loop
      vertex -32.5 -65.5 -4
      vertex 51.5 -76 -4
      vertex 32.5 -65.5 -4
    endloop
  endfacet
  facet normal 0 0 1
    outer loop
      vertex -32.5 -65.5 -4
      vertex -51.5 -76 -4
      vertex 51.5 -76 -4
    endloop
  endfacet
  facet normal 0 0 1
    outer loop
      vertex -32.5 59.5 -4
      vertex -51.5 -76 -4
      vertex -32.5 -65.5 -4
    endloop
  endfacet
  facet normal 0 -0 1
    outer loop
      vertex -51.5 76 -4
      vertex -51.5 77.5 -4
      vertex -53 77.5 -4
    endloop
  endfacet
  facet normal 0 0 1
    outer loop
      vertex 53 77.5 -4
      vertex 51.5 77.5 -4
      vertex 51.5 76 -4
    endloop
  endfacet
  facet normal 1 0 0
    outer loop
      vertex -51.5 76 -1.8
      vertex -51.5 75.8579 -4
      vertex -51.5 76 -4
    endloop
  endfacet
  facet normal 1 -0 0
    outer loop
      vertex -51.5 -76 -1.8
      vertex -51.5 75.8579 -4
      vertex -51.5 76 -1.8
    endloop
  endfacet
  facet normal 1 0 0
    outer loop
      vertex -51.5 75.8579 -4
      vertex -51.5 -76 -1.8
      vertex -51.5 -76 -4
    endloop
  endfacet
  facet normal 1 -0 0
    outer loop
      vertex -51.5 76 -4
      vertex -51.5 77.5 -5.64214
      vertex -51.5 77.5 -4
    endloop
  endfacet
  facet normal 1 0 0
    outer loop
      vertex -51.5 77.5 -5.64214
      vertex -51.5 76 -4
      vertex -51.5 75.8579 -4
    endloop
  endfacet
  facet normal -0.707107 0.707107 0
    outer loop
      vertex 51.5 76 -1.8
      vertex 53 77.5 -4
      vertex 51.5 76 -4
    endloop
  endfacet
  facet normal -0.707107 0.707107 0
    outer loop
      vertex 53 77.5 -4
      vertex 51.5 76 -1.8
      vertex 53 77.5 -0.200001
    endloop
  endfacet
  facet normal -0.707107 0.707107 0
    outer loop
      vertex 49 73.5 -0.200001
      vertex 51.5 76 -1.8
      vertex 49 73.5 -1.8
    endloop
  endfacet
  facet normal -0.707107 0.707107 0
    outer loop
      vertex 51.5 76 -1.8
      vertex 49 73.5 -0.200001
      vertex 53 77.5 -0.200001
    endloop
  endfacet
  facet normal 0.707107 0.707107 0
    outer loop
      vertex -53 77.5 -0.200001
      vertex -51.5 76 -1.8
      vertex -53 77.5 -4
    endloop
  endfacet
  facet normal 0.707107 0.707107 0
    outer loop
      vertex -49 73.5 -0.200001
      vertex -51.5 76 -1.8
      vertex -53 77.5 -0.200001
    endloop
  endfacet
  facet normal 0.707107 0.707107 0
    outer loop
      vertex -51.5 76 -1.8
      vertex -49 73.5 -0.200001
      vertex -49 73.5 -1.8
    endloop
  endfacet
  facet normal 0.707107 0.707107 0
    outer loop
      vertex -53 77.5 -4
      vertex -51.5 76 -1.8
      vertex -51.5 76 -4
    endloop
  endfacet
  facet normal 0 0.707115 0.707098
    outer loop
      vertex 51.5 77.5 -5.64214
      vertex -51.5 75.8579 -4
      vertex 51.5 75.8579 -4
    endloop
  endfacet
  facet normal 0 0.707115 0.707098
    outer loop
      vertex -51.5 75.8579 -4
      vertex 51.5 77.5 -5.64214
      vertex -51.5 77.5 -5.64214
    endloop
  endfacet
endsolid OpenSCAD_Model
