solid OpenSCAD_Model
  facet normal 0 0 1
    outer loop
      vertex -60.25 95 0
      vertex -65 90 0
      vertex -60.25 90 0
    endloop
  endfacet
  facet normal 0 0 1
    outer loop
      vertex -65 90 0
      vertex -70 95 0
      vertex -65 -90 0
    endloop
  endfacet
  facet normal -0 0 1
    outer loop
      vertex -70 95 0
      vertex -65 90 0
      vertex -60.25 95 0
    endloop
  endfacet
  facet normal 0 0 1
    outer loop
      vertex 70 95 0
      vertex 65 90 0
      vertex 70 -95 0
    endloop
  endfacet
  facet normal -0 0 1
    outer loop
      vertex 60.25 95 0
      vertex 65 90 0
      vertex 70 95 0
    endloop
  endfacet
  facet normal 0 0 1
    outer loop
      vertex 65 90 0
      vertex 60.25 95 0
      vertex 60.25 90 0
    endloop
  endfacet
  facet normal -0 0 1
    outer loop
      vertex 65 -90 0
      vertex 70 -95 0
      vertex 65 90 0
    endloop
  endfacet
  facet normal -0 0 1
    outer loop
      vertex -65 -90 0
      vertex 70 -95 0
      vertex 65 -90 0
    endloop
  endfacet
  facet normal 0 0 1
    outer loop
      vertex -65 -90 0
      vertex -70 -95 0
      vertex 70 -95 0
    endloop
  endfacet
  facet normal 0 0 1
    outer loop
      vertex -70 -95 0
      vertex -65 -90 0
      vertex -70 95 0
    endloop
  endfacet
  facet normal 0 0 1
    outer loop
      vertex -60.25 90 0
      vertex 60.25 90 0
      vertex 60.25 95 0
    endloop
  endfacet
  facet normal 0 0 1
    outer loop
      vertex -60.25 90 0
      vertex 60.25 95 0
      vertex -60.25 95 0
    endloop
  endfacet
  facet normal 0 0 1
    outer loop
      vertex 60.25 90 0
      vertex -60.25 90 0
      vertex 60.25 84.1 0
    endloop
  endfacet
  facet normal 0 0 1
    outer loop
      vertex 60.25 84.1 0
      vertex -60.25 90 0
      vertex -60.25 84.1 0
    endloop
  endfacet
  facet normal -1 0 0
    outer loop
      vertex -65 -90 0
      vertex -65 90 4
      vertex -65 90 0
    endloop
  endfacet
  facet normal -1 -0 0
    outer loop
      vertex -65 90 4
      vertex -65 -90 0
      vertex -65 -90 4
    endloop
  endfacet
  facet normal 0 0 1
    outer loop
      vertex -60.25 90 4
      vertex -65 90 4
      vertex -60.25 -75.9 4
    endloop
  endfacet
  facet normal 0 0 1
    outer loop
      vertex 60.25 -75.9 4
      vertex 65 90 4
      vertex 60.25 90 4
    endloop
  endfacet
  facet normal 0 0 1
    outer loop
      vertex 65 90 4
      vertex 60.25 -75.9 4
      vertex 65 -90 4
    endloop
  endfacet
  facet normal -0 0 1
    outer loop
      vertex -60.25 -75.9 4
      vertex 65 -90 4
      vertex 60.25 -75.9 4
    endloop
  endfacet
  facet normal 0 0 1
    outer loop
      vertex -60.25 -75.9 4
      vertex -65 -90 4
      vertex 65 -90 4
    endloop
  endfacet
  facet normal 0 0 1
    outer loop
      vertex -65 -90 4
      vertex -60.25 -75.9 4
      vertex -65 90 4
    endloop
  endfacet
  facet normal 1 -0 0
    outer loop
      vertex 65 -90 4
      vertex 65 90 0
      vertex 65 90 4
    endloop
  endfacet
  facet normal 1 0 0
    outer loop
      vertex 65 90 0
      vertex 65 -90 4
      vertex 65 -90 0
    endloop
  endfacet
  facet normal 0 -1 0
    outer loop
      vertex -65 -90 0
      vertex 65 -90 4
      vertex -65 -90 4
    endloop
  endfacet
  facet normal 0 -1 -0
    outer loop
      vertex 65 -90 4
      vertex -65 -90 0
      vertex 65 -90 0
    endloop
  endfacet
  facet normal 0 1 -0
    outer loop
      vertex 65 90 0
      vertex 60.25 90 4
      vertex 65 90 4
    endloop
  endfacet
  facet normal 0 1 0
    outer loop
      vertex 60.25 90 4
      vertex 65 90 0
      vertex 60.25 90 0
    endloop
  endfacet
  facet normal 0 1 -0
    outer loop
      vertex -60.25 90 0
      vertex -65 90 4
      vertex -60.25 90 4
    endloop
  endfacet
  facet normal 0 1 0
    outer loop
      vertex -65 90 4
      vertex -60.25 90 0
      vertex -65 90 0
    endloop
  endfacet
  facet normal -1 0 0
    outer loop
      vertex 60.25 66.7 0.0500002
      vertex 60.25 65.4 0.0500002
      vertex 60.25 66.7 1.35
    endloop
  endfacet
  facet normal -1 0 0
    outer loop
      vertex 60.25 84.1 1.35
      vertex 60.25 90 0
      vertex 60.25 84.1 0
    endloop
  endfacet
  facet normal -1 0 0
    outer loop
      vertex 60.25 90 0
      vertex 60.25 84.1 1.35
      vertex 60.25 90 4
    endloop
  endfacet
  facet normal -1 0 0
    outer loop
      vertex 60.25 66.7 1.35
      vertex 60.25 90 4
      vertex 60.25 84.1 1.35
    endloop
  endfacet
  facet normal -1 0 0
    outer loop
      vertex 60.25 65.4 1.35
      vertex 60.25 66.7 1.35
      vertex 60.25 65.4 0.0500002
    endloop
  endfacet
  facet normal -1 0 0
    outer loop
      vertex 60.25 65.4 1.35
      vertex 60.25 90 4
      vertex 60.25 66.7 1.35
    endloop
  endfacet
  facet normal -1 0 0
    outer loop
      vertex 60.25 -75.9 4
      vertex 60.25 65.4 1.35
      vertex 60.25 -75.9 1.35
    endloop
  endfacet
  facet normal -1 0 0
    outer loop
      vertex 60.25 65.4 1.35
      vertex 60.25 -75.9 4
      vertex 60.25 90 4
    endloop
  endfacet
  facet normal 1 0 0
    outer loop
      vertex -60.25 90 4
      vertex -60.25 84.1 1.35
      vertex -60.25 90 0
    endloop
  endfacet
  facet normal 1 0 0
    outer loop
      vertex -60.25 90 4
      vertex -60.25 66.7 1.35
      vertex -60.25 84.1 1.35
    endloop
  endfacet
  facet normal 1 0 0
    outer loop
      vertex -60.25 66.7 1.35
      vertex -60.25 65.4 1.35
      vertex -60.25 66.7 0.0500002
    endloop
  endfacet
  facet normal 1 0 0
    outer loop
      vertex -60.25 90 4
      vertex -60.25 65.4 1.35
      vertex -60.25 66.7 1.35
    endloop
  endfacet
  facet normal 1 -0 0
    outer loop
      vertex -60.25 -75.9 4
      vertex -60.25 65.4 1.35
      vertex -60.25 90 4
    endloop
  endfacet
  facet normal 1 0 0
    outer loop
      vertex -60.25 65.4 1.35
      vertex -60.25 -75.9 4
      vertex -60.25 -75.9 1.35
    endloop
  endfacet
  facet normal 1 0 0
    outer loop
      vertex -60.25 90 0
      vertex -60.25 84.1 1.35
      vertex -60.25 84.1 0
    endloop
  endfacet
  facet normal 1 0 0
    outer loop
      vertex -60.25 66.7 0.0500002
      vertex -60.25 65.4 1.35
      vertex -60.25 65.4 0.0500002
    endloop
  endfacet
  facet normal 0 1 -0
    outer loop
      vertex 60.25 84.1 0
      vertex -60.25 84.1 1.35
      vertex 60.25 84.1 1.35
    endloop
  endfacet
  facet normal 0 1 0
    outer loop
      vertex -60.25 84.1 1.35
      vertex 60.25 84.1 0
      vertex -60.25 84.1 0
    endloop
  endfacet
  facet normal 0 0 1
    outer loop
      vertex 49.25 -64.9 1.35
      vertex 60.25 65.4 1.35
      vertex 49.25 55.3 1.35
    endloop
  endfacet
  facet normal 0 0 1
    outer loop
      vertex 60.25 65.4 1.35
      vertex -45.85 55.3 1.35
      vertex 49.25 55.3 1.35
    endloop
  endfacet
  facet normal 0 0 1
    outer loop
      vertex -45.85 55.3 1.35
      vertex -60.25 65.4 1.35
      vertex -45.85 -64.9 1.35
    endloop
  endfacet
  facet normal -0 0 1
    outer loop
      vertex -60.25 65.4 1.35
      vertex -45.85 55.3 1.35
      vertex 60.25 65.4 1.35
    endloop
  endfacet
  facet normal 0 0 1
    outer loop
      vertex 60.25 65.4 1.35
      vertex 49.25 -64.9 1.35
      vertex 60.25 -75.9 1.35
    endloop
  endfacet
  facet normal -0 0 1
    outer loop
      vertex -45.85 -64.9 1.35
      vertex 60.25 -75.9 1.35
      vertex 49.25 -64.9 1.35
    endloop
  endfacet
  facet normal 0 0 1
    outer loop
      vertex -45.85 -64.9 1.35
      vertex -60.25 -75.9 1.35
      vertex 60.25 -75.9 1.35
    endloop
  endfacet
  facet normal 0 0 1
    outer loop
      vertex -60.25 -75.9 1.35
      vertex -45.85 -64.9 1.35
      vertex -60.25 65.4 1.35
    endloop
  endfacet
  facet normal -0 0 1
    outer loop
      vertex -60.25 84.1 1.35
      vertex 60.25 66.7 1.35
      vertex 60.25 84.1 1.35
    endloop
  endfacet
  facet normal 0 0 1
    outer loop
      vertex 60.25 66.7 1.35
      vertex -60.25 84.1 1.35
      vertex -60.25 66.7 1.35
    endloop
  endfacet
  facet normal 0 1 -0
    outer loop
      vertex 60.25 -75.9 1.35
      vertex -60.25 -75.9 4
      vertex 60.25 -75.9 4
    endloop
  endfacet
  facet normal 0 1 0
    outer loop
      vertex -60.25 -75.9 4
      vertex 60.25 -75.9 1.35
      vertex -60.25 -75.9 1.35
    endloop
  endfacet
  facet normal -0 0 1
    outer loop
      vertex -60.25 66.7 0.0500002
      vertex 60.25 65.4 0.0500002
      vertex 60.25 66.7 0.0500002
    endloop
  endfacet
  facet normal 0 0 1
    outer loop
      vertex 60.25 65.4 0.0500002
      vertex -60.25 66.7 0.0500002
      vertex -60.25 65.4 0.0500002
    endloop
  endfacet
  facet normal 0 -1 0
    outer loop
      vertex -60.25 66.7 0.0500002
      vertex 60.25 66.7 1.35
      vertex -60.25 66.7 1.35
    endloop
  endfacet
  facet normal 0 -1 -0
    outer loop
      vertex 60.25 66.7 1.35
      vertex -60.25 66.7 0.0500002
      vertex 60.25 66.7 0.0500002
    endloop
  endfacet
  facet normal 0 1 -0
    outer loop
      vertex 60.25 65.4 0.0500002
      vertex -60.25 65.4 1.35
      vertex 60.25 65.4 1.35
    endloop
  endfacet
  facet normal 0 1 0
    outer loop
      vertex -60.25 65.4 1.35
      vertex 60.25 65.4 0.0500002
      vertex -60.25 65.4 0.0500002
    endloop
  endfacet
  facet normal -1 0 0
    outer loop
      vertex 49.25 -64.9 -5
      vertex 49.25 55.3 1.35
      vertex 49.25 55.3 -5
    endloop
  endfacet
  facet normal -1 -0 0
    outer loop
      vertex 49.25 55.3 1.35
      vertex 49.25 -64.9 -5
      vertex 49.25 -64.9 1.35
    endloop
  endfacet
  facet normal 1 -0 0
    outer loop
      vertex -45.85 -64.9 1.35
      vertex -45.85 55.3 -5
      vertex -45.85 55.3 1.35
    endloop
  endfacet
  facet normal 1 0 0
    outer loop
      vertex -45.85 55.3 -5
      vertex -45.85 -64.9 1.35
      vertex -45.85 -64.9 -5
    endloop
  endfacet
  facet normal 0 1 -0
    outer loop
      vertex 49.25 -64.9 -5
      vertex -45.85 -64.9 1.35
      vertex 49.25 -64.9 1.35
    endloop
  endfacet
  facet normal 0 1 0
    outer loop
      vertex -45.85 -64.9 1.35
      vertex 49.25 -64.9 -5
      vertex -45.85 -64.9 -5
    endloop
  endfacet
  facet normal 0 -1 0
    outer loop
      vertex -45.85 55.3 -5
      vertex 49.25 55.3 1.35
      vertex -45.85 55.3 1.35
    endloop
  endfacet
  facet normal 0 -1 -0
    outer loop
      vertex 49.25 55.3 1.35
      vertex -45.85 55.3 -5
      vertex 49.25 55.3 -5
    endloop
  endfacet
  facet normal -1 0 0
    outer loop
      vertex -70 -95 -5
      vertex -70 95 0
      vertex -70 95 -5
    endloop
  endfacet
  facet normal -1 -0 0
    outer loop
      vertex -70 95 0
      vertex -70 -95 -5
      vertex -70 -95 0
    endloop
  endfacet
  facet normal 1 -0 0
    outer loop
      vertex 70 -95 0
      vertex 70 95 -5
      vertex 70 95 0
    endloop
  endfacet
  facet normal 1 0 0
    outer loop
      vertex 70 95 -5
      vertex 70 -95 0
      vertex 70 -95 -5
    endloop
  endfacet
  facet normal 0 1 -0
    outer loop
      vertex 70 95 -5
      vertex 60.25 95 0
      vertex 70 95 0
    endloop
  endfacet
  facet normal 0 1 0
    outer loop
      vertex 60.25 95 0
      vertex 70 95 -5
      vertex -60.25 95 0
    endloop
  endfacet
  facet normal 0 1 0
    outer loop
      vertex -70 95 -5
      vertex -60.25 95 0
      vertex 70 95 -5
    endloop
  endfacet
  facet normal 0 1 0
    outer loop
      vertex -60.25 95 0
      vertex -70 95 -5
      vertex -70 95 0
    endloop
  endfacet
  facet normal 0 0 -1
    outer loop
      vertex 49.25 55.3 -5
      vertex 70 -95 -5
      vertex 49.25 -64.9 -5
    endloop
  endfacet
  facet normal 0 0 -1
    outer loop
      vertex 70 -95 -5
      vertex -45.85 -64.9 -5
      vertex 49.25 -64.9 -5
    endloop
  endfacet
  facet normal -0 0 -1
    outer loop
      vertex -45.85 -64.9 -5
      vertex -70 -95 -5
      vertex -45.85 55.3 -5
    endloop
  endfacet
  facet normal 0 0 -1
    outer loop
      vertex -70 -95 -5
      vertex -45.85 -64.9 -5
      vertex 70 -95 -5
    endloop
  endfacet
  facet normal 0 0 -1
    outer loop
      vertex 70 -95 -5
      vertex 49.25 55.3 -5
      vertex 70 95 -5
    endloop
  endfacet
  facet normal 0 0 -1
    outer loop
      vertex -45.85 55.3 -5
      vertex 70 95 -5
      vertex 49.25 55.3 -5
    endloop
  endfacet
  facet normal 0 0 -1
    outer loop
      vertex -45.85 55.3 -5
      vertex -70 95 -5
      vertex 70 95 -5
    endloop
  endfacet
  facet normal 0 0 -1
    outer loop
      vertex -70 95 -5
      vertex -45.85 55.3 -5
      vertex -70 -95 -5
    endloop
  endfacet
  facet normal 0 -1 0
    outer loop
      vertex -70 -95 -5
      vertex 70 -95 0
      vertex -70 -95 0
    endloop
  endfacet
  facet normal 0 -1 -0
    outer loop
      vertex 70 -95 0
      vertex -70 -95 -5
      vertex 70 -95 -5
    endloop
  endfacet
endsolid OpenSCAD_Model
