solid OpenSCAD_Model
  facet normal -1 0 0
    outer loop
      vertex 60.25 66.7 0.0500002
      vertex 60.25 65.4 0.0500002
      vertex 60.25 66.7 1.35
    endloop
  endfacet
  facet normal -1 0 0
    outer loop
      vertex 60.25 84.1 1.35
      vertex 60.25 90 0
      vertex 60.25 84.1 0
    endloop
  endfacet
  facet normal -1 0 0
    outer loop
      vertex 60.25 90 0
      vertex 60.25 84.1 1.35
      vertex 60.25 90 4
    endloop
  endfacet
  facet normal -1 0 0
    outer loop
      vertex 60.25 66.7 1.35
      vertex 60.25 90 4
      vertex 60.25 84.1 1.35
    endloop
  endfacet
  facet normal -1 0 0
    outer loop
      vertex 60.25 65.4 1.35
      vertex 60.25 66.7 1.35
      vertex 60.25 65.4 0.0500002
    endloop
  endfacet
  facet normal -1 0 0
    outer loop
      vertex 60.25 65.4 1.35
      vertex 60.25 90 4
      vertex 60.25 66.7 1.35
    endloop
  endfacet
  facet normal -1 0 0
    outer loop
      vertex 60.25 -75.9 4
      vertex 60.25 65.4 1.35
      vertex 60.25 -75.9 1.35
    endloop
  endfacet
  facet normal -1 0 0
    outer loop
      vertex 60.25 65.4 1.35
      vertex 60.25 -75.9 4
      vertex 60.25 90 4
    endloop
  endfacet
  facet normal 0 0 1
    outer loop
      vertex 105 105 0
      vertex 65 90 0
      vertex 105 -105 0
    endloop
  endfacet
  facet normal 0 0 1
    outer loop
      vertex 105 105 0
      vertex 60.25 97.1 0
      vertex 65 90 0
    endloop
  endfacet
  facet normal 0 0 1
    outer loop
      vertex 105 105 0
      vertex -60.25 97.1 0
      vertex 60.25 97.1 0
    endloop
  endfacet
  facet normal 0 0 1
    outer loop
      vertex -60.25 97.1 0
      vertex -65 90 0
      vertex -60.25 90 0
    endloop
  endfacet
  facet normal 0 0 1
    outer loop
      vertex -65 90 0
      vertex -105 105 0
      vertex -65 -90 0
    endloop
  endfacet
  facet normal 0 0 1
    outer loop
      vertex -60.25 97.1 0
      vertex -105 105 0
      vertex -65 90 0
    endloop
  endfacet
  facet normal -0 0 1
    outer loop
      vertex -105 105 0
      vertex -60.25 97.1 0
      vertex 105 105 0
    endloop
  endfacet
  facet normal -0 0 1
    outer loop
      vertex 65 -90 0
      vertex 105 -105 0
      vertex 65 90 0
    endloop
  endfacet
  facet normal -0 0 1
    outer loop
      vertex -65 -90 0
      vertex 105 -105 0
      vertex 65 -90 0
    endloop
  endfacet
  facet normal 0 0 1
    outer loop
      vertex -65 -90 0
      vertex -105 -105 0
      vertex 105 -105 0
    endloop
  endfacet
  facet normal 0 0 1
    outer loop
      vertex -105 -105 0
      vertex -65 -90 0
      vertex -105 105 0
    endloop
  endfacet
  facet normal 0 0 1
    outer loop
      vertex 65 90 0
      vertex 60.25 97.1 0
      vertex 60.25 90 0
    endloop
  endfacet
  facet normal 0 0 1
    outer loop
      vertex -60.25 90 0
      vertex 60.25 90 0
      vertex 60.25 97.1 0
    endloop
  endfacet
  facet normal 0 0 1
    outer loop
      vertex -60.25 90 0
      vertex 60.25 97.1 0
      vertex -60.25 97.1 0
    endloop
  endfacet
  facet normal 0 0 1
    outer loop
      vertex 60.25 90 0
      vertex -60.25 90 0
      vertex 60.25 84.1 0
    endloop
  endfacet
  facet normal 0 0 1
    outer loop
      vertex 60.25 84.1 0
      vertex -60.25 90 0
      vertex -60.25 84.1 0
    endloop
  endfacet
  facet normal 1 0 0
    outer loop
      vertex -60.25 90 4
      vertex -60.25 84.1 1.35
      vertex -60.25 90 0
    endloop
  endfacet
  facet normal 1 0 0
    outer loop
      vertex -60.25 90 4
      vertex -60.25 66.7 1.35
      vertex -60.25 84.1 1.35
    endloop
  endfacet
  facet normal 1 0 0
    outer loop
      vertex -60.25 66.7 1.35
      vertex -60.25 65.4 1.35
      vertex -60.25 66.7 0.0500002
    endloop
  endfacet
  facet normal 1 0 0
    outer loop
      vertex -60.25 90 4
      vertex -60.25 65.4 1.35
      vertex -60.25 66.7 1.35
    endloop
  endfacet
  facet normal 1 -0 0
    outer loop
      vertex -60.25 -75.9 4
      vertex -60.25 65.4 1.35
      vertex -60.25 90 4
    endloop
  endfacet
  facet normal 1 0 0
    outer loop
      vertex -60.25 65.4 1.35
      vertex -60.25 -75.9 4
      vertex -60.25 -75.9 1.35
    endloop
  endfacet
  facet normal 1 0 0
    outer loop
      vertex -60.25 90 0
      vertex -60.25 84.1 1.35
      vertex -60.25 84.1 0
    endloop
  endfacet
  facet normal 1 0 0
    outer loop
      vertex -60.25 66.7 0.0500002
      vertex -60.25 65.4 1.35
      vertex -60.25 65.4 0.0500002
    endloop
  endfacet
  facet normal 0 1 -0
    outer loop
      vertex 60.25 84.1 0
      vertex -60.25 84.1 1.35
      vertex 60.25 84.1 1.35
    endloop
  endfacet
  facet normal 0 1 0
    outer loop
      vertex -60.25 84.1 1.35
      vertex 60.25 84.1 0
      vertex -60.25 84.1 0
    endloop
  endfacet
  facet normal 0 0 1
    outer loop
      vertex 49.25 -64.9 1.35
      vertex 60.25 65.4 1.35
      vertex 49.25 55.3 1.35
    endloop
  endfacet
  facet normal 0 0 1
    outer loop
      vertex 60.25 65.4 1.35
      vertex -45.85 55.3 1.35
      vertex 49.25 55.3 1.35
    endloop
  endfacet
  facet normal 0 0 1
    outer loop
      vertex -45.85 55.3 1.35
      vertex -60.25 65.4 1.35
      vertex -45.85 -64.9 1.35
    endloop
  endfacet
  facet normal -0 0 1
    outer loop
      vertex -60.25 65.4 1.35
      vertex -45.85 55.3 1.35
      vertex 60.25 65.4 1.35
    endloop
  endfacet
  facet normal 0 0 1
    outer loop
      vertex 60.25 65.4 1.35
      vertex 49.25 -64.9 1.35
      vertex 60.25 -75.9 1.35
    endloop
  endfacet
  facet normal -0 0 1
    outer loop
      vertex -45.85 -64.9 1.35
      vertex 60.25 -75.9 1.35
      vertex 49.25 -64.9 1.35
    endloop
  endfacet
  facet normal 0 0 1
    outer loop
      vertex -45.85 -64.9 1.35
      vertex -60.25 -75.9 1.35
      vertex 60.25 -75.9 1.35
    endloop
  endfacet
  facet normal 0 0 1
    outer loop
      vertex -60.25 -75.9 1.35
      vertex -45.85 -64.9 1.35
      vertex -60.25 65.4 1.35
    endloop
  endfacet
  facet normal -0 0 1
    outer loop
      vertex -60.25 84.1 1.35
      vertex 60.25 66.7 1.35
      vertex 60.25 84.1 1.35
    endloop
  endfacet
  facet normal 0 0 1
    outer loop
      vertex 60.25 66.7 1.35
      vertex -60.25 84.1 1.35
      vertex -60.25 66.7 1.35
    endloop
  endfacet
  facet normal 0 1 -0
    outer loop
      vertex 60.25 -75.9 1.35
      vertex -60.25 -75.9 4
      vertex 60.25 -75.9 4
    endloop
  endfacet
  facet normal 0 1 0
    outer loop
      vertex -60.25 -75.9 4
      vertex 60.25 -75.9 1.35
      vertex -60.25 -75.9 1.35
    endloop
  endfacet
  facet normal -0 0 1
    outer loop
      vertex -60.25 66.7 0.0500002
      vertex 60.25 65.4 0.0500002
      vertex 60.25 66.7 0.0500002
    endloop
  endfacet
  facet normal 0 0 1
    outer loop
      vertex 60.25 65.4 0.0500002
      vertex -60.25 66.7 0.0500002
      vertex -60.25 65.4 0.0500002
    endloop
  endfacet
  facet normal 0 1 -0
    outer loop
      vertex 60.25 65.4 0.0500002
      vertex -60.25 65.4 1.35
      vertex 60.25 65.4 1.35
    endloop
  endfacet
  facet normal 0 1 0
    outer loop
      vertex -60.25 65.4 1.35
      vertex 60.25 65.4 0.0500002
      vertex -60.25 65.4 0.0500002
    endloop
  endfacet
  facet normal 0 -1 0
    outer loop
      vertex -60.25 66.7 0.0500002
      vertex 60.25 66.7 1.35
      vertex -60.25 66.7 1.35
    endloop
  endfacet
  facet normal 0 -1 -0
    outer loop
      vertex 60.25 66.7 1.35
      vertex -60.25 66.7 0.0500002
      vertex 60.25 66.7 0.0500002
    endloop
  endfacet
  facet normal -1 0 0
    outer loop
      vertex 49.25 -64.9 -6
      vertex 49.25 55.3 1.35
      vertex 49.25 55.3 -6
    endloop
  endfacet
  facet normal -1 -0 0
    outer loop
      vertex 49.25 55.3 1.35
      vertex 49.25 -64.9 -6
      vertex 49.25 -64.9 1.35
    endloop
  endfacet
  facet normal 1 -0 0
    outer loop
      vertex -45.85 -64.9 1.35
      vertex -45.85 55.3 -6
      vertex -45.85 55.3 1.35
    endloop
  endfacet
  facet normal 1 0 0
    outer loop
      vertex -45.85 55.3 -6
      vertex -45.85 -64.9 1.35
      vertex -45.85 -64.9 -6
    endloop
  endfacet
  facet normal 0 1 -0
    outer loop
      vertex 49.25 -64.9 -6
      vertex -45.85 -64.9 1.35
      vertex 49.25 -64.9 1.35
    endloop
  endfacet
  facet normal 0 1 0
    outer loop
      vertex -45.85 -64.9 1.35
      vertex 49.25 -64.9 -6
      vertex -45.85 -64.9 -6
    endloop
  endfacet
  facet normal 0 -1 0
    outer loop
      vertex -45.85 55.3 -6
      vertex 49.25 55.3 1.35
      vertex -45.85 55.3 1.35
    endloop
  endfacet
  facet normal 0 -1 -0
    outer loop
      vertex 49.25 55.3 1.35
      vertex -45.85 55.3 -6
      vertex 49.25 55.3 -6
    endloop
  endfacet
  facet normal -1 0 0
    outer loop
      vertex -100 -100 -16
      vertex -100 100 -6
      vertex -100 100 -16
    endloop
  endfacet
  facet normal -1 -0 0
    outer loop
      vertex -100 100 -6
      vertex -100 -100 -16
      vertex -100 -100 -6
    endloop
  endfacet
  facet normal 0 0 -1
    outer loop
      vertex 49.25 55.3 -6
      vertex 90 -90 -6
      vertex 49.25 -64.9 -6
    endloop
  endfacet
  facet normal 0 0 -1
    outer loop
      vertex 90 -90 -6
      vertex -45.85 -64.9 -6
      vertex 49.25 -64.9 -6
    endloop
  endfacet
  facet normal -0 0 -1
    outer loop
      vertex -45.85 -64.9 -6
      vertex -90 -90 -6
      vertex -45.85 55.3 -6
    endloop
  endfacet
  facet normal 0 0 -1
    outer loop
      vertex -90 -90 -6
      vertex -45.85 -64.9 -6
      vertex 90 -90 -6
    endloop
  endfacet
  facet normal 0 0 -1
    outer loop
      vertex 90 -90 -6
      vertex 49.25 55.3 -6
      vertex 90 90 -6
    endloop
  endfacet
  facet normal 0 0 -1
    outer loop
      vertex -45.85 55.3 -6
      vertex 90 90 -6
      vertex 49.25 55.3 -6
    endloop
  endfacet
  facet normal 0 0 -1
    outer loop
      vertex -45.85 55.3 -6
      vertex -90 90 -6
      vertex 90 90 -6
    endloop
  endfacet
  facet normal 0 0 -1
    outer loop
      vertex -90 90 -6
      vertex -45.85 55.3 -6
      vertex -90 -90 -6
    endloop
  endfacet
  facet normal 0 0 -1
    outer loop
      vertex 105 -105 -6
      vertex 100 -100 -6
      vertex 105 105 -6
    endloop
  endfacet
  facet normal 0 0 -1
    outer loop
      vertex 105 -105 -6
      vertex -100 -100 -6
      vertex 100 -100 -6
    endloop
  endfacet
  facet normal -0 0 -1
    outer loop
      vertex -100 -100 -6
      vertex -105 -105 -6
      vertex -100 100 -6
    endloop
  endfacet
  facet normal 0 0 -1
    outer loop
      vertex -105 -105 -6
      vertex -100 -100 -6
      vertex 105 -105 -6
    endloop
  endfacet
  facet normal 0 0 -1
    outer loop
      vertex 100 100 -6
      vertex 105 105 -6
      vertex 100 -100 -6
    endloop
  endfacet
  facet normal 0 0 -1
    outer loop
      vertex -100 100 -6
      vertex 105 105 -6
      vertex 100 100 -6
    endloop
  endfacet
  facet normal 0 0 -1
    outer loop
      vertex -100 100 -6
      vertex -105 105 -6
      vertex 105 105 -6
    endloop
  endfacet
  facet normal 0 0 -1
    outer loop
      vertex -105 105 -6
      vertex -100 100 -6
      vertex -105 -105 -6
    endloop
  endfacet
  facet normal 1 -0 0
    outer loop
      vertex 100 -100 -6
      vertex 100 100 -16
      vertex 100 100 -6
    endloop
  endfacet
  facet normal 1 0 0
    outer loop
      vertex 100 100 -16
      vertex 100 -100 -6
      vertex 100 -100 -16
    endloop
  endfacet
  facet normal 0 1 -0
    outer loop
      vertex 100 100 -16
      vertex -100 100 -6
      vertex 100 100 -6
    endloop
  endfacet
  facet normal 0 1 0
    outer loop
      vertex -100 100 -6
      vertex 100 100 -16
      vertex -100 100 -16
    endloop
  endfacet
  facet normal 0 0 -1
    outer loop
      vertex 100 -100 -16
      vertex 90 -90 -16
      vertex 100 100 -16
    endloop
  endfacet
  facet normal 0 0 -1
    outer loop
      vertex 100 -100 -16
      vertex -90 -90 -16
      vertex 90 -90 -16
    endloop
  endfacet
  facet normal -0 0 -1
    outer loop
      vertex -90 -90 -16
      vertex -100 -100 -16
      vertex -90 90 -16
    endloop
  endfacet
  facet normal 0 0 -1
    outer loop
      vertex -100 -100 -16
      vertex -90 -90 -16
      vertex 100 -100 -16
    endloop
  endfacet
  facet normal 0 0 -1
    outer loop
      vertex 90 90 -16
      vertex 100 100 -16
      vertex 90 -90 -16
    endloop
  endfacet
  facet normal 0 0 -1
    outer loop
      vertex -90 90 -16
      vertex 100 100 -16
      vertex 90 90 -16
    endloop
  endfacet
  facet normal 0 0 -1
    outer loop
      vertex -90 90 -16
      vertex -100 100 -16
      vertex 100 100 -16
    endloop
  endfacet
  facet normal 0 0 -1
    outer loop
      vertex -100 100 -16
      vertex -90 90 -16
      vertex -100 -100 -16
    endloop
  endfacet
  facet normal 0 -1 0
    outer loop
      vertex -100 -100 -16
      vertex 100 -100 -6
      vertex -100 -100 -6
    endloop
  endfacet
  facet normal 0 -1 -0
    outer loop
      vertex 100 -100 -6
      vertex -100 -100 -16
      vertex 100 -100 -16
    endloop
  endfacet
  facet normal 1 -0 0
    outer loop
      vertex -90 -90 -6
      vertex -90 90 -16
      vertex -90 90 -6
    endloop
  endfacet
  facet normal 1 0 0
    outer loop
      vertex -90 90 -16
      vertex -90 -90 -6
      vertex -90 -90 -16
    endloop
  endfacet
  facet normal -1 0 0
    outer loop
      vertex 90 -90 -16
      vertex 90 90 -6
      vertex 90 90 -16
    endloop
  endfacet
  facet normal -1 -0 0
    outer loop
      vertex 90 90 -6
      vertex 90 -90 -16
      vertex 90 -90 -6
    endloop
  endfacet
  facet normal 0 1 -0
    outer loop
      vertex 90 -90 -16
      vertex -90 -90 -6
      vertex 90 -90 -6
    endloop
  endfacet
  facet normal 0 1 0
    outer loop
      vertex -90 -90 -6
      vertex 90 -90 -16
      vertex -90 -90 -16
    endloop
  endfacet
  facet normal 0 -1 0
    outer loop
      vertex -90 90 -16
      vertex 90 90 -6
      vertex -90 90 -6
    endloop
  endfacet
  facet normal 0 -1 -0
    outer loop
      vertex 90 90 -6
      vertex -90 90 -16
      vertex 90 90 -16
    endloop
  endfacet
  facet normal -1 0 0
    outer loop
      vertex -105 -105 -6
      vertex -105 105 0
      vertex -105 105 -6
    endloop
  endfacet
  facet normal -1 -0 0
    outer loop
      vertex -105 105 0
      vertex -105 -105 -6
      vertex -105 -105 0
    endloop
  endfacet
  facet normal 1 -0 0
    outer loop
      vertex 105 -105 0
      vertex 105 105 -6
      vertex 105 105 0
    endloop
  endfacet
  facet normal 1 0 0
    outer loop
      vertex 105 105 -6
      vertex 105 -105 0
      vertex 105 -105 -6
    endloop
  endfacet
  facet normal 0 1 -0
    outer loop
      vertex 105 105 -6
      vertex -105 105 0
      vertex 105 105 0
    endloop
  endfacet
  facet normal 0 1 0
    outer loop
      vertex -105 105 0
      vertex 105 105 -6
      vertex -105 105 -6
    endloop
  endfacet
  facet normal 0 -1 0
    outer loop
      vertex -105 -105 -6
      vertex 105 -105 0
      vertex -105 -105 0
    endloop
  endfacet
  facet normal 0 -1 -0
    outer loop
      vertex 105 -105 0
      vertex -105 -105 -6
      vertex 105 -105 -6
    endloop
  endfacet
  facet normal -1 0 0
    outer loop
      vertex -65 -90 0
      vertex -65 90 4
      vertex -65 90 0
    endloop
  endfacet
  facet normal -1 -0 0
    outer loop
      vertex -65 90 4
      vertex -65 -90 0
      vertex -65 -90 4
    endloop
  endfacet
  facet normal 0 0 1
    outer loop
      vertex -60.25 90 4
      vertex -65 90 4
      vertex -60.25 -75.9 4
    endloop
  endfacet
  facet normal 0 0 1
    outer loop
      vertex 60.25 -75.9 4
      vertex 65 90 4
      vertex 60.25 90 4
    endloop
  endfacet
  facet normal 0 0 1
    outer loop
      vertex 65 90 4
      vertex 60.25 -75.9 4
      vertex 65 -90 4
    endloop
  endfacet
  facet normal -0 0 1
    outer loop
      vertex -60.25 -75.9 4
      vertex 65 -90 4
      vertex 60.25 -75.9 4
    endloop
  endfacet
  facet normal 0 0 1
    outer loop
      vertex -60.25 -75.9 4
      vertex -65 -90 4
      vertex 65 -90 4
    endloop
  endfacet
  facet normal 0 0 1
    outer loop
      vertex -65 -90 4
      vertex -60.25 -75.9 4
      vertex -65 90 4
    endloop
  endfacet
  facet normal 1 -0 0
    outer loop
      vertex 65 -90 4
      vertex 65 90 0
      vertex 65 90 4
    endloop
  endfacet
  facet normal 1 0 0
    outer loop
      vertex 65 90 0
      vertex 65 -90 4
      vertex 65 -90 0
    endloop
  endfacet
  facet normal 0 1 -0
    outer loop
      vertex 65 90 0
      vertex 60.25 90 4
      vertex 65 90 4
    endloop
  endfacet
  facet normal 0 1 0
    outer loop
      vertex 60.25 90 4
      vertex 65 90 0
      vertex 60.25 90 0
    endloop
  endfacet
  facet normal 0 1 -0
    outer loop
      vertex -60.25 90 0
      vertex -65 90 4
      vertex -60.25 90 4
    endloop
  endfacet
  facet normal 0 1 0
    outer loop
      vertex -65 90 4
      vertex -60.25 90 0
      vertex -65 90 0
    endloop
  endfacet
  facet normal 0 -1 0
    outer loop
      vertex -65 -90 0
      vertex 65 -90 4
      vertex -65 -90 4
    endloop
  endfacet
  facet normal 0 -1 -0
    outer loop
      vertex 65 -90 4
      vertex -65 -90 0
      vertex 65 -90 0
    endloop
  endfacet
endsolid OpenSCAD_Model
