solid OpenSCAD_Model
  facet normal 0 0 -1
    outer loop
      vertex 80 -95 -8
      vertex 55 -60.75 -8
      vertex 80 95 -8
    endloop
  endfacet
  facet normal 0 0 -1
    outer loop
      vertex 80 -95 -8
      vertex -55 -60.75 -8
      vertex 55 -60.75 -8
    endloop
  endfacet
  facet normal -0 0 -1
    outer loop
      vertex -55 -60.75 -8
      vertex -80 -95 -8
      vertex -55 60.75 -8
    endloop
  endfacet
  facet normal 0 0 -1
    outer loop
      vertex -80 -95 -8
      vertex -55 -60.75 -8
      vertex 80 -95 -8
    endloop
  endfacet
  facet normal 0 0 -1
    outer loop
      vertex 55 60.75 -8
      vertex 80 95 -8
      vertex 55 -60.75 -8
    endloop
  endfacet
  facet normal 0 0 -1
    outer loop
      vertex -55 60.75 -8
      vertex 80 95 -8
      vertex 55 60.75 -8
    endloop
  endfacet
  facet normal 0 0 -1
    outer loop
      vertex -55 60.75 -8
      vertex -80 95 -8
      vertex 80 95 -8
    endloop
  endfacet
  facet normal 0 0 -1
    outer loop
      vertex -80 95 -8
      vertex -55 60.75 -8
      vertex -80 -95 -8
    endloop
  endfacet
  facet normal 0 1 -0
    outer loop
      vertex 80 95 -8
      vertex 61 95 0
      vertex 80 95 0
    endloop
  endfacet
  facet normal 0 1 0
    outer loop
      vertex 61 95 0
      vertex 80 95 -8
      vertex -61 95 0
    endloop
  endfacet
  facet normal 0 1 0
    outer loop
      vertex -80 95 -8
      vertex -61 95 0
      vertex 80 95 -8
    endloop
  endfacet
  facet normal 0 1 0
    outer loop
      vertex -61 95 0
      vertex -80 95 -8
      vertex -80 95 0
    endloop
  endfacet
  facet normal 0 -1 0
    outer loop
      vertex -80 -95 -8
      vertex 80 -95 0
      vertex -80 -95 0
    endloop
  endfacet
  facet normal 0 -1 -0
    outer loop
      vertex 80 -95 0
      vertex -80 -95 -8
      vertex 80 -95 -8
    endloop
  endfacet
  facet normal 0 0 1
    outer loop
      vertex -61 95 0
      vertex -75 90 0
      vertex -61 90 0
    endloop
  endfacet
  facet normal 0 0 1
    outer loop
      vertex -75 90 0
      vertex -80 95 0
      vertex -75 -90 0
    endloop
  endfacet
  facet normal -0 0 1
    outer loop
      vertex -80 95 0
      vertex -75 90 0
      vertex -61 95 0
    endloop
  endfacet
  facet normal 0 0 1
    outer loop
      vertex 80 95 0
      vertex 75 90 0
      vertex 80 -95 0
    endloop
  endfacet
  facet normal -0 0 1
    outer loop
      vertex 61 95 0
      vertex 75 90 0
      vertex 80 95 0
    endloop
  endfacet
  facet normal 0 0 1
    outer loop
      vertex 75 90 0
      vertex 61 95 0
      vertex 61 90 0
    endloop
  endfacet
  facet normal -0 0 1
    outer loop
      vertex 75 -90 0
      vertex 80 -95 0
      vertex 75 90 0
    endloop
  endfacet
  facet normal -0 0 1
    outer loop
      vertex -75 -90 0
      vertex 80 -95 0
      vertex 75 -90 0
    endloop
  endfacet
  facet normal 0 0 1
    outer loop
      vertex -75 -90 0
      vertex -80 -95 0
      vertex 80 -95 0
    endloop
  endfacet
  facet normal 0 0 1
    outer loop
      vertex -80 -95 0
      vertex -75 -90 0
      vertex -80 95 0
    endloop
  endfacet
  facet normal 0 0 1
    outer loop
      vertex -61 90 0
      vertex 61 90 0
      vertex 61 95 0
    endloop
  endfacet
  facet normal 0 0 1
    outer loop
      vertex -61 90 0
      vertex 61 95 0
      vertex -61 95 0
    endloop
  endfacet
  facet normal 0 0 1
    outer loop
      vertex 61 90 0
      vertex -61 90 0
      vertex 61 83.45 0
    endloop
  endfacet
  facet normal 0 0 1
    outer loop
      vertex 61 83.45 0
      vertex -61 90 0
      vertex -61 83.45 0
    endloop
  endfacet
  facet normal 1 -0 0
    outer loop
      vertex 75 -90 9
      vertex 75 90 0
      vertex 75 90 9
    endloop
  endfacet
  facet normal 1 0 0
    outer loop
      vertex 75 90 0
      vertex 75 -90 9
      vertex 75 -90 0
    endloop
  endfacet
  facet normal 0 0 1
    outer loop
      vertex -61 90 9
      vertex -75 90 9
      vertex -61 -76.55 9
    endloop
  endfacet
  facet normal 0 0 1
    outer loop
      vertex 61 -76.55 9
      vertex 75 90 9
      vertex 61 90 9
    endloop
  endfacet
  facet normal 0 0 1
    outer loop
      vertex 75 90 9
      vertex 61 -76.55 9
      vertex 75 -90 9
    endloop
  endfacet
  facet normal -0 0 1
    outer loop
      vertex -61 -76.55 9
      vertex 75 -90 9
      vertex 61 -76.55 9
    endloop
  endfacet
  facet normal 0 0 1
    outer loop
      vertex -61 -76.55 9
      vertex -75 -90 9
      vertex 75 -90 9
    endloop
  endfacet
  facet normal 0 0 1
    outer loop
      vertex -75 -90 9
      vertex -61 -76.55 9
      vertex -75 90 9
    endloop
  endfacet
  facet normal -1 0 0
    outer loop
      vertex -75 -90 0
      vertex -75 90 9
      vertex -75 90 0
    endloop
  endfacet
  facet normal -1 -0 0
    outer loop
      vertex -75 90 9
      vertex -75 -90 0
      vertex -75 -90 9
    endloop
  endfacet
  facet normal 0 1 -0
    outer loop
      vertex -61 90 0
      vertex -75 90 9
      vertex -61 90 9
    endloop
  endfacet
  facet normal 0 1 0
    outer loop
      vertex -75 90 9
      vertex -61 90 0
      vertex -75 90 0
    endloop
  endfacet
  facet normal 0 1 -0
    outer loop
      vertex 75 90 0
      vertex 61 90 9
      vertex 75 90 9
    endloop
  endfacet
  facet normal 0 1 0
    outer loop
      vertex 61 90 9
      vertex 75 90 0
      vertex 61 90 0
    endloop
  endfacet
  facet normal 0 -1 0
    outer loop
      vertex -75 -90 0
      vertex 75 -90 9
      vertex -75 -90 9
    endloop
  endfacet
  facet normal 0 -1 -0
    outer loop
      vertex 75 -90 9
      vertex -75 -90 0
      vertex 75 -90 0
    endloop
  endfacet
  facet normal 1 0 0
    outer loop
      vertex -61 90 9
      vertex -61 83.45 2.7
      vertex -61 90 0
    endloop
  endfacet
  facet normal 1 0 0
    outer loop
      vertex -61 90 9
      vertex -61 64.45 2.7
      vertex -61 83.45 2.7
    endloop
  endfacet
  facet normal 1 0 0
    outer loop
      vertex -61 64.45 2.7
      vertex -61 61.95 2.7
      vertex -61 64.45 1.4
    endloop
  endfacet
  facet normal 1 0 0
    outer loop
      vertex -61 90 9
      vertex -61 61.95 2.7
      vertex -61 64.45 2.7
    endloop
  endfacet
  facet normal 1 -0 0
    outer loop
      vertex -61 -76.55 9
      vertex -61 61.95 2.7
      vertex -61 90 9
    endloop
  endfacet
  facet normal 1 0 0
    outer loop
      vertex -61 61.95 2.7
      vertex -61 -76.55 9
      vertex -61 -76.55 2.7
    endloop
  endfacet
  facet normal 1 0 0
    outer loop
      vertex -61 90 0
      vertex -61 83.45 2.7
      vertex -61 83.45 0
    endloop
  endfacet
  facet normal 1 0 0
    outer loop
      vertex -61 64.45 1.4
      vertex -61 61.95 2.7
      vertex -61 61.95 1.4
    endloop
  endfacet
  facet normal -1 0 0
    outer loop
      vertex 61 64.45 1.4
      vertex 61 61.95 1.4
      vertex 61 64.45 2.7
    endloop
  endfacet
  facet normal -1 0 0
    outer loop
      vertex 61 83.45 2.7
      vertex 61 90 0
      vertex 61 83.45 0
    endloop
  endfacet
  facet normal -1 0 0
    outer loop
      vertex 61 90 0
      vertex 61 83.45 2.7
      vertex 61 90 9
    endloop
  endfacet
  facet normal -1 0 0
    outer loop
      vertex 61 64.45 2.7
      vertex 61 90 9
      vertex 61 83.45 2.7
    endloop
  endfacet
  facet normal -1 0 0
    outer loop
      vertex 61 61.95 2.7
      vertex 61 64.45 2.7
      vertex 61 61.95 1.4
    endloop
  endfacet
  facet normal -1 0 0
    outer loop
      vertex 61 61.95 2.7
      vertex 61 90 9
      vertex 61 64.45 2.7
    endloop
  endfacet
  facet normal -1 0 0
    outer loop
      vertex 61 -76.55 9
      vertex 61 61.95 2.7
      vertex 61 -76.55 2.7
    endloop
  endfacet
  facet normal -1 0 0
    outer loop
      vertex 61 61.95 2.7
      vertex 61 -76.55 9
      vertex 61 90 9
    endloop
  endfacet
  facet normal 0 1 -0
    outer loop
      vertex 61 83.45 0
      vertex -61 83.45 2.7
      vertex 61 83.45 2.7
    endloop
  endfacet
  facet normal 0 1 0
    outer loop
      vertex -61 83.45 2.7
      vertex 61 83.45 0
      vertex -61 83.45 0
    endloop
  endfacet
  facet normal -0 0 1
    outer loop
      vertex -61 83.45 2.7
      vertex 61 64.45 2.7
      vertex 61 83.45 2.7
    endloop
  endfacet
  facet normal 0 0 1
    outer loop
      vertex 61 64.45 2.7
      vertex -61 83.45 2.7
      vertex -61 64.45 2.7
    endloop
  endfacet
  facet normal 0 0 1
    outer loop
      vertex 55 -60.75 2.7
      vertex 61 61.95 2.7
      vertex 55 60.75 2.7
    endloop
  endfacet
  facet normal 0 0 1
    outer loop
      vertex 61 61.95 2.7
      vertex -55 60.75 2.7
      vertex 55 60.75 2.7
    endloop
  endfacet
  facet normal 0 0 1
    outer loop
      vertex -55 60.75 2.7
      vertex -61 61.95 2.7
      vertex -55 -60.75 2.7
    endloop
  endfacet
  facet normal -0 0 1
    outer loop
      vertex -61 61.95 2.7
      vertex -55 60.75 2.7
      vertex 61 61.95 2.7
    endloop
  endfacet
  facet normal 0 0 1
    outer loop
      vertex 61 61.95 2.7
      vertex 55 -60.75 2.7
      vertex 61 -76.55 2.7
    endloop
  endfacet
  facet normal -0 0 1
    outer loop
      vertex -55 -60.75 2.7
      vertex 61 -76.55 2.7
      vertex 55 -60.75 2.7
    endloop
  endfacet
  facet normal 0 0 1
    outer loop
      vertex -55 -60.75 2.7
      vertex -61 -76.55 2.7
      vertex 61 -76.55 2.7
    endloop
  endfacet
  facet normal 0 0 1
    outer loop
      vertex -61 -76.55 2.7
      vertex -55 -60.75 2.7
      vertex -61 61.95 2.7
    endloop
  endfacet
  facet normal 0 1 -0
    outer loop
      vertex 61 -76.55 2.7
      vertex -61 -76.55 9
      vertex 61 -76.55 9
    endloop
  endfacet
  facet normal 0 1 0
    outer loop
      vertex -61 -76.55 9
      vertex 61 -76.55 2.7
      vertex -61 -76.55 2.7
    endloop
  endfacet
  facet normal -0 0 1
    outer loop
      vertex -61 64.45 1.4
      vertex 61 61.95 1.4
      vertex 61 64.45 1.4
    endloop
  endfacet
  facet normal 0 0 1
    outer loop
      vertex 61 61.95 1.4
      vertex -61 64.45 1.4
      vertex -61 61.95 1.4
    endloop
  endfacet
  facet normal 0 -1 0
    outer loop
      vertex -61 64.45 1.4
      vertex 61 64.45 2.7
      vertex -61 64.45 2.7
    endloop
  endfacet
  facet normal 0 -1 -0
    outer loop
      vertex 61 64.45 2.7
      vertex -61 64.45 1.4
      vertex 61 64.45 1.4
    endloop
  endfacet
  facet normal 0 1 -0
    outer loop
      vertex 61 61.95 1.4
      vertex -61 61.95 2.7
      vertex 61 61.95 2.7
    endloop
  endfacet
  facet normal 0 1 0
    outer loop
      vertex -61 61.95 2.7
      vertex 61 61.95 1.4
      vertex -61 61.95 1.4
    endloop
  endfacet
  facet normal 1 -0 0
    outer loop
      vertex -55 -60.75 2.7
      vertex -55 60.75 -8
      vertex -55 60.75 2.7
    endloop
  endfacet
  facet normal 1 0 0
    outer loop
      vertex -55 60.75 -8
      vertex -55 -60.75 2.7
      vertex -55 -60.75 -8
    endloop
  endfacet
  facet normal -1 0 0
    outer loop
      vertex 55 -60.75 -8
      vertex 55 60.75 2.7
      vertex 55 60.75 -8
    endloop
  endfacet
  facet normal -1 -0 0
    outer loop
      vertex 55 60.75 2.7
      vertex 55 -60.75 -8
      vertex 55 -60.75 2.7
    endloop
  endfacet
  facet normal 0 -1 0
    outer loop
      vertex -55 60.75 -8
      vertex 55 60.75 2.7
      vertex -55 60.75 2.7
    endloop
  endfacet
  facet normal 0 -1 -0
    outer loop
      vertex 55 60.75 2.7
      vertex -55 60.75 -8
      vertex 55 60.75 -8
    endloop
  endfacet
  facet normal 0 1 -0
    outer loop
      vertex 55 -60.75 -8
      vertex -55 -60.75 2.7
      vertex 55 -60.75 2.7
    endloop
  endfacet
  facet normal 0 1 0
    outer loop
      vertex -55 -60.75 2.7
      vertex 55 -60.75 -8
      vertex -55 -60.75 -8
    endloop
  endfacet
  facet normal 1 -0 0
    outer loop
      vertex 80 -95 0
      vertex 80 95 -8
      vertex 80 95 0
    endloop
  endfacet
  facet normal 1 0 0
    outer loop
      vertex 80 95 -8
      vertex 80 -95 0
      vertex 80 -95 -8
    endloop
  endfacet
  facet normal -1 0 0
    outer loop
      vertex -80 -95 -8
      vertex -80 95 0
      vertex -80 95 -8
    endloop
  endfacet
  facet normal -1 -0 0
    outer loop
      vertex -80 95 0
      vertex -80 -95 -8
      vertex -80 -95 0
    endloop
  endfacet
endsolid OpenSCAD_Model
